<svg id="d000d172-d3f6-4067-9bff-b7a6a8e5b081" xmlns="http://www.w3.org/2000/svg" xmlns:xlink="http://www.w3.org/1999/xlink" viewBox="0 0 97.8 60"><defs><style>.cls-1,.cls-21{fill:#ca9e64;}.cls-1,.cls-10,.cls-14,.cls-9{opacity:0.1;}.cls-1,.cls-10,.cls-6,.cls-9{isolation:isolate;}.cls-10,.cls-2{fill:#fff;}.cls-3{fill:#d0d0db;}.cls-4{fill:url(#linear-gradient);}.cls-5{fill:#95b6f0;}.cls-6{opacity:0.05;}.cls-7{fill:#5f546f;}.cls-8{fill:#ccccd8;}.cls-11{fill:#c27099;}.cls-12{fill:#4c4981;}.cls-13{fill:#63345e;}.cls-15{fill:url(#linear-gradient-2);}.cls-16{fill:#aea4b2;}.cls-17{fill:#ffc4d0;}.cls-18{fill:#575989;}.cls-19{fill:#ae757a;}.cls-20{fill:none;}.cls-22{fill:#d4dfec;}.cls-23{fill:#444053;}</style><linearGradient id="linear-gradient" x1="76.47" y1="-90.2" x2="76.47" y2="-45.86" gradientTransform="matrix(1, 0, 0, -1, -19.44, -32.19)" gradientUnits="userSpaceOnUse"><stop offset="0" stop-color="gray" stop-opacity="0.25"/><stop offset="0.54" stop-color="gray" stop-opacity="0.12"/><stop offset="1" stop-color="gray" stop-opacity="0.1"/></linearGradient><linearGradient id="linear-gradient-2" x1="44.65" y1="-90.25" x2="44.65" y2="-43.59" xlink:href="#linear-gradient"/></defs><title>talking</title><path class="cls-1" d="M97.73,14.81l0,.37a10.54,10.54,0,0,1-.79,3.17c-1.41,3.37-4.25,5.93-7.27,8l-.19.13c-.55.37-1.11.72-1.67,1.07l0,0,0,0-.1.06-.24.15-.13.08-.62.38-.54.32h0c-.34.21-.68.42-1,.62-1.14.69-2.28,1.39-3.37,2.14l-.17.12a2.07,2.07,0,0,0-.24.17c-.41.29-.82.59-1.22.9l-.23.18a10.72,10.72,0,0,0-2.13,2.18,5.21,5.21,0,0,0-1,2.32,6.88,6.88,0,0,0,1,3.92c.41.82.9,1.62,1.36,2.42.14.26.29.52.42.79a12,12,0,0,1,.63,1.42,4.47,4.47,0,0,1,0,3.16,5,5,0,0,1-2.47,2.53c-.59.32-1.22.61-1.87.89a17.89,17.89,0,0,0-2.66,1.34l-.16.1-.31.22h0c-.17.13-.33.27-.48.41a3.45,3.45,0,0,0-.28.26l-.21.21-.39.43-.1.12-.28.33-.35.44-.5.63-.14.18c-.28.34-.55.67-.85,1l0,0a6.16,6.16,0,0,1-2.42,1.71c-2.33.8-4.64-.4-6.87-1.69h0l-.06,0h0l-.19-.11-.09-.06-.69-.39-.05,0c-.32-.19-.64-.36-1-.53s-.38-.2-.58-.29a15.46,15.46,0,0,0-2-.8,17.08,17.08,0,0,0-2.72-.65c-.38-.06-.75-.11-1.13-.14s-.49,0-.74,0a17.32,17.32,0,0,0-5.9.71l-.78.26-.14,0-.7.28-.09,0h0c-1.2.52-2.36,1.17-3.55,1.69l-.32.13a9.5,9.5,0,0,1-2.33.65,8.88,8.88,0,0,1-2.47-.06,18.34,18.34,0,0,1-2.19-.52h0l-.2-.06-.09,0-.12,0a26.25,26.25,0,0,0-5.11-1.3l-.25,0a12.51,12.51,0,0,0-1.62,0,24.86,24.86,0,0,0-4.81,1l-.1,0-.26.08-.19.05-.36.11-.09,0h0c-2.63.76-5.24,1.4-7.81.65a9.41,9.41,0,0,1-3.07-1.61,16.67,16.67,0,0,1-1.86-1.7c-.55-.56-1.07-1.16-1.57-1.75a18.54,18.54,0,0,1-4-6.53A12.94,12.94,0,0,1,0,44.42c0-.55,0-1.11,0-1.66,0-.37,0-.74,0-1.11s0-.54,0-.8v-.13c0-.13,0-.26,0-.38.07-2.32.15-4.65.22-7a16.49,16.49,0,0,1,.58-4.6A5.17,5.17,0,0,1,1,28.26l.15-.37c1.07-2.39,3.12-4.36,4.94-6.37a25.45,25.45,0,0,0,1.87-2.28,8.48,8.48,0,0,0,1.64-4.06c0-.12,0-.24,0-.37a2.54,2.54,0,0,0,0-.39c0-2.15-1.19-4.22-1.66-6.3a6,6,0,0,1-.07-2.8,2,2,0,0,1,.07-.26c.82-2.8,4-4.27,6.94-4.75A30.51,30.51,0,0,1,24,.39l.6.1c.62.1,1.25.22,1.87.35,1.5.31,3,.68,4.49,1a16,16,0,0,0,5.61-.25c1-.14,2-.24,3-.29.83-.05,1.66-.06,2.49-.05A34.94,34.94,0,0,1,51.9,2.8c2.15.67,4.26,1.55,6.44,2a14.32,14.32,0,0,0,2.26.33h.18c5.16.23,9.9-2.85,15-3.43l.17,0c.57-.05,1.13-.08,1.7-.08,4.77,0,9.4,2.07,13.79,4.1A14.69,14.69,0,0,1,95.24,8,8.5,8.5,0,0,1,97.73,14.81Z" transform="translate(0.05 0)"/><path class="cls-1" d="M52.41,40.34V28.26h3.33a.3.3,0,0,0-.08-.08l0,0,0,0-.06-.06-.06,0,0,0-.1-.07,0,0H52.41v-.66l-.07,0-.09.05h0l0,0,0,0-.15.13,0,0-.1.09-.39.37-.1.08-.23.17-.09.06-.06,0-.05,0h0a1.55,1.55,0,0,1-.36.13V40.34h-5s0,0,0,0,0,.22.08.33h4.91V53.66h.32l.25,0,.12,0,.14,0h0l.23,0h.05l.1,0,.16,0h0l.37,0h.05l.07,0V40.72h7.72v-.06c0-.1,0-.2,0-.31H52.41Zm11.55,0h-.33v.38H64Zm-3.79,0h0l0,.31v.05H63v0l.21-.35Zm-52.3-35a6.16,6.16,0,0,0,.07,2.8V5.05A2.13,2.13,0,0,0,7.87,5.32ZM55.66,28.18c0-.1,0-.19,0-.3h-.8v.05a1,1,0,0,1,0,.17s0,.08,0,.12v0h.77ZM49.47,40.54h0l-.1,0a1.82,1.82,0,0,1,.27-.15H31.69l0,.08,0,0,0,.06a.47.47,0,0,0,0,.1.9.9,0,0,1,.05.09H49.75Zm-23-9.13v0Zm0-1.81-.09.09.08.11v0l0,0v0s0,0,0,0h0s0,0,0,0v0l0,0h0a1.44,1.44,0,0,1,.18.25v-.71l0,0ZM49.33,40.34H46.72a6,6,0,0,0,2.54.06l.14,0Zm5.61.37,0,0,0,0-.07-.09,0,0-.06-.12v0l0,0H52.41V28.26h2.48v-.05s0-.07,0-.11,0-.11,0-.17,0,0,0-.05H52.41V18.59h-.1l0,0h0l-.21.1-.37.16-.07,0-.09,0-.18.07-.13,0-.22.06-.1,0-.11,0-.11,0h-.1v8.67h-24V17.26l-.05,0c-.3.17-.7.14-1,.36a1.21,1.21,0,0,0-.16,1.23l0,.11s0,0,0,0h0v0s0,0,0,.06v.1s0,0,0,0,0,.05,0,.07h0a.78.78,0,0,1-.52.67,1.24,1.24,0,0,1-.27,0v7.85H23.09l0,.38h1.5V40.34H21.92l0,.19a.24.24,0,0,0,0,.08l0,.1h2.79v2.53h.54l.29,0h.42l.16,0h.26l.2,0V40.71h24v.55l.2.16.11.09.36.32.09.09.12.12v0l.09.1.06.07a.64.64,0,0,1,.1.13l.09.12.09.13.08.16h.18l0,0v0a1.11,1.11,0,0,1,.07.16.14.14,0,0,0,0,.06s0,0,0,.07a.14.14,0,0,0,0,.06v.06a.06.06,0,0,1,0,0v.19l.12,0V40.71ZM26.5,40.34V28.26h24V40.34Zm23.14,0H46.45l.2.09a5.2,5.2,0,0,0,2.67.13l.14,0-.09,0A1.82,1.82,0,0,1,49.64,40.34ZM11,40.34c.07.13.16.25.24.37H21.84l0-.1a.24.24,0,0,1,0-.08l0-.19Zm38.31,0H46.72a6,6,0,0,0,2.54.06l.14,0ZM11,40.34c.07.13.16.25.24.37H21.84l0-.1a.24.24,0,0,1,0-.08l0-.19Zm43.92.37,0,0,0,0-.07-.09,0,0-.06-.12v0l0,0H52.41V28.26h2.48v-.05s0-.07,0-.11,0-.11,0-.17,0,0,0-.05H52.41V18.59h-.1l0,0h0l-.21.1-.37.16-.07,0-.09,0-.18.07-.13,0-.22.06-.1,0-.11,0-.11,0h-.1v8.67h-24V17.26l-.05,0c-.3.17-.7.14-1,.36a1.21,1.21,0,0,0-.16,1.23l0,.11s0,0,0,0h0v0s0,0,0,.06v.08a0,0,0,0,0,0,0v.1h0a.76.76,0,0,1-.51.67,1.24,1.24,0,0,1-.27,0v7.85H23.09l0,.38h1.5V40.34H21.92l0,.19a.24.24,0,0,0,0,.08l0,.1h2.79v2.53h.54l.29,0h.42l.16,0h.26l.2,0V40.71h5.64c-.09-.13-.17-.25-.24-.37H26.5V28.26h24V40.34h-.91a1.82,1.82,0,0,0-.27.15l.09,0h0l.29.17h.8v.55l.2.16.11.09.35.32.1.09.12.12v0l.09.1.06.07.1.12.09.13.09.13.08.16h.18l0,0s0,0,0,0a.77.77,0,0,1,.07.16.14.14,0,0,0,0,.06s0,0,0,.07,0,0,0,.06v0a.11.11,0,0,1,0,0v.19l.12,0V40.71Zm-5.61-.37H46.72a6,6,0,0,0,2.54.06l.14,0Zm6.33-12.16c0-.1,0-.19,0-.3h-.8v.05a1,1,0,0,1,0,.17s0,.08,0,.12v0h.77ZM11,40.34l.24.37H21.84l0-.1a.24.24,0,0,1,0-.08l0-.19Zm43.92.37,0,0,0,0-.07-.09,0,0-.06-.12v0a.12.12,0,0,1,0,0h-2.3V28.26h2.48v-.05s0-.07,0-.11,0-.11,0-.17,0,0,0-.05H52.41V18.59h-.1l0,0h0l-.21.1-.37.16-.07,0-.09,0-.18.07-.13,0-.22.06-.1,0-.11,0-.11,0h-.1v8.67h-24V17.26l-.05,0c-.3.17-.7.14-1,.36a1.21,1.21,0,0,0-.16,1.23l0,.11s0,0,0,0h0v0a.14.14,0,0,1,0,.06v.08a0,0,0,0,0,0,0v.1h0a.76.76,0,0,1-.51.67,1.24,1.24,0,0,1-.27,0v7.85H23.09l0,.38h1.5V40.34H21.92l0,.19a.24.24,0,0,0,0,.08l0,.1h2.79v2.53h.54l.29,0h.42l.16,0h.26l.2,0V40.71h5.64c-.09-.13-.17-.25-.24-.37H26.5V28.26h24V40.34h-.91a1.82,1.82,0,0,0-.27.15l.09,0h0l.29.17h.8v.55l.2.16.11.09.35.32.1.09.12.12v0l.09.1.06.07.1.12.09.13.09.13.08.16h.18l0,0s0,0,0,0a.77.77,0,0,1,.07.16.14.14,0,0,0,0,.06s0,0,0,.07,0,0,0,.06v0a.11.11,0,0,1,0,0v.19l.12,0V40.71Zm.72-12.53c0-.1,0-.19,0-.3h-.8v.05a1,1,0,0,1,0,.17s0,.08,0,.12v0h.77ZM11,40.34c.08.13.16.25.25.37H21.84l0-.1a.24.24,0,0,1,0-.08l0-.19Zm43.92.37,0,0,0,0-.06-.09a.1.1,0,0,1,0,0l-.06-.12v0l0,0h-2.3V28.26h2.48v-.05s0-.07,0-.11,0-.11,0-.17,0,0,0-.05H52.41V18.59h-.1l0,0h0l-.21.1-.37.16-.07,0-.09,0-.18.07-.13,0-.22.06-.1,0-.11,0-.11,0h-.1v8.67h-24V17.26l-.05,0c-.3.17-.7.14-1,.36a1.21,1.21,0,0,0-.16,1.23l0,.11s0,0,0,0h0v0a.14.14,0,0,1,0,.06v.08a0,0,0,0,0,0,0v.1h0a.76.76,0,0,1-.51.67,1.24,1.24,0,0,1-.27,0v7.85H23.09l0,.38h1.5V40.34H21.92l0,.19a.24.24,0,0,0,0,.08l0,.1h2.79v2.53h.54l.29,0h.42l.16,0h.26l.2,0V40.71h5.64c-.09-.13-.17-.25-.24-.37H26.5V28.26h24V40.34h-.91a1.82,1.82,0,0,0-.27.15l.09,0h0l.29.17h.8v.55l.2.16.11.09.35.32.1.09.12.12v0l.09.1.06.07.1.12.09.13.09.13.08.16h.18l0,0s0,0,0,0a.77.77,0,0,1,.07.16.14.14,0,0,0,0,.06s0,0,0,.07,0,0,0,.06v0a.11.11,0,0,1,0,0v.19l.12,0V40.71Zm.72-12.53c0-.1,0-.19,0-.3h-.8v.05a1,1,0,0,1,0,.17s0,.08,0,.12v0h.77ZM11,40.34c.08.13.16.25.25.37H21.84l0-.1a.24.24,0,0,1,0-.08l0-.19ZM55,40.71s0,0,0,0l0,0-.07-.09,0,0-.07-.12v0l0,0h-2.3V28.26h2.48v-.05s0-.07,0-.11,0-.11,0-.17,0,0,0-.05H52.41V18.59h-.1l0,0h0l-.21.1-.37.16-.07,0-.09,0-.18.07-.13,0-.22.06-.1,0-.11,0-.11,0h-.1v8.67h-24V17.26l-.05,0c-.3.17-.7.14-1,.36a1.21,1.21,0,0,0-.16,1.23l0,.11s0,0,0,0h0v0a.14.14,0,0,1,0,.06v.08a0,0,0,0,0,0,0v.1h0a.76.76,0,0,1-.51.67,1.24,1.24,0,0,1-.27,0v7.85H23.09l0,.38h1.5V40.34H21.92l0,.19a.24.24,0,0,0,0,.08l0,.1h2.79v2.53h.54l.29,0h.42l.16,0h.26l.2,0V40.71h5.64c-.09-.13-.17-.25-.24-.37H26.5V28.26h24V40.34h-.91a1.82,1.82,0,0,0-.27.15l.09,0h0l.29.17h.8v.55l.2.16.11.09.35.32.1.09.12.12v0l.09.1.06.07.1.12.09.13.09.13.08.16h.18l0,0s0,0,0,0a.77.77,0,0,1,.07.16.14.14,0,0,0,0,.06s0,0,0,.07,0,0,0,.06v0a.11.11,0,0,1,0,0v.19l.12,0V40.71H55Zm.71-12.53c0-.1,0-.19,0-.3h-.81v.05a1,1,0,0,1,0,.17s0,.08,0,.12v0h.77ZM11,40.34c.08.13.16.25.25.37H21.84l0-.1a.24.24,0,0,1,0-.08l0-.19ZM55,40.71l0,0s0,0,0,0l-.07-.09,0,0a.75.75,0,0,0-.07-.12v0s0,0,0,0h-2.3V28.26h2.48v-.05s0-.07,0-.11,0-.11,0-.17,0,0,0-.05H52.41V18.59h-.1l0,0h0l-.21.1-.37.16-.07,0-.09,0-.18.07-.13,0-.22.06-.1,0-.11,0-.11,0h-.1v8.67h-24V17.26l-.05,0c-.3.17-.7.14-1,.36a1.21,1.21,0,0,0-.16,1.23l0,.11s0,0,0,0h0v0a.14.14,0,0,1,0,.06v.08a0,0,0,0,0,0,0v.1h0a.76.76,0,0,1-.51.67,1.24,1.24,0,0,1-.27,0v7.85H23.09l0,.38h1.5V40.34H21.92l0,.19a.24.24,0,0,0,0,.08l0,.1h2.79v2.53h.54l.29,0h.42l.16,0h.26l.2,0V40.71h5.64c-.09-.13-.17-.25-.24-.37H26.5V28.26h24V40.34h-.91a1.82,1.82,0,0,0-.27.15l.09,0h0l.29.17h.8v.55l.2.16.11.09.35.32.1.09.12.12v0l.09.1.06.07.1.12.09.13.09.13.08.16h.18l0,0s0,0,0,0a.77.77,0,0,1,.07.16.14.14,0,0,0,0,.06s0,0,0,.07,0,0,0,.06v0a.11.11,0,0,1,0,0v.19l.12,0V40.71H55Zm.71-12.53c0-.1,0-.19,0-.3h-.81v.05a1,1,0,0,1,0,.17s0,.08,0,.12v0h.77ZM11,40.34c.08.13.17.25.25.37H21.84l0-.1a.24.24,0,0,1,0-.08l0-.19ZM55,40.71l0,0s0,0,0,0l-.07-.09,0,0-.06-.12v0s0,0,0,0h-2.3V28.26h2.48v-.05s0-.07,0-.11,0-.11,0-.17,0,0,0-.05H52.41V18.59h-.1l0,0h0l-.21.1-.37.16-.07,0-.09,0-.18.07-.13,0-.22.06-.1,0-.11,0-.11,0h-.1v8.67h-24V17.26l-.05,0c-.3.17-.7.14-1,.36a1.21,1.21,0,0,0-.16,1.23l0,.11s0,0,0,0h0v0a.14.14,0,0,1,0,.06v.08a0,0,0,0,0,0,0v.1h0a.76.76,0,0,1-.51.67,1.24,1.24,0,0,1-.27,0v7.85H23.09l0,.38h1.5V40.34H21.92l0,.19a.24.24,0,0,0,0,.08l0,.1h2.79v2.53h.54l.29,0h.42l.16,0h.26l.2,0V40.71h5.64c-.09-.13-.17-.25-.24-.37H26.5V28.26h24V40.34h-.91a1.82,1.82,0,0,0-.27.15l.09,0h0l.29.17h.8v.55l.2.16.11.09.35.32.1.09.12.12v0l.09.1.06.07.1.12.09.13.09.13.08.16h.18l0,0s0,0,0,0a.77.77,0,0,1,.07.16.14.14,0,0,0,0,.06s0,0,0,.07,0,0,0,.06v0a.11.11,0,0,1,0,0v.19l.12,0V40.71H55Zm.72-12.53a2.83,2.83,0,0,1,0-.3h-.81v.05a1,1,0,0,1,0,.17s0,.08,0,.12v0h.77ZM11,40.34c.07.13.16.25.24.37H21.84l0-.1a.24.24,0,0,1,0-.08l0-.19ZM55,40.71l0,0a0,0,0,0,0,0,0l-.07-.09,0,0-.06-.12v0l0,0h-2.3V28.26h2.48v-.05s0-.07,0-.11,0-.11,0-.17,0,0,0-.05H52.41V18.59h-.1l0,0h0l-.21.1-.37.16-.07,0-.09,0-.18.07-.13,0-.22.06-.1,0-.11,0-.11,0h-.1v8.67h-24V17.26l-.05,0c-.3.17-.7.14-1,.36a1.21,1.21,0,0,0-.16,1.23l0,.11s0,0,0,0h0v0a.14.14,0,0,1,0,.06v.08a0,0,0,0,0,0,0v.1h0a.76.76,0,0,1-.51.67,1.24,1.24,0,0,1-.27,0v7.85H23.09l0,.38h1.5V40.34H21.92l0,.19a.24.24,0,0,0,0,.08l0,.1h2.79v2.53h.54l.29,0h.42l.16,0h.26l.2,0V40.71h5.64c-.09-.13-.17-.25-.24-.37H26.5V28.26h24V40.34h-.91a1.82,1.82,0,0,0-.27.15l.09,0h0l.29.17h.8v.55l.2.16.11.09.35.32.1.09.12.12v0l.09.1.06.07.1.12.09.13.09.13.08.16h.18l0,0s0,0,0,0a.77.77,0,0,1,.07.16.14.14,0,0,0,0,.06s0,0,0,.07,0,0,0,.06v0a.11.11,0,0,1,0,0v.19l.12,0V40.71H55Zm.72-12.53c0-.1,0-.19,0-.3h-.81v.05a1,1,0,0,1,0,.17s0,.08,0,.12v0h.77ZM11,40.34l.24.37H21.84l0-.1a.24.24,0,0,1,0-.08l0-.19ZM55,40.71l0,0a0,0,0,0,0,0,0l-.07-.09,0,0-.06-.12v0a.12.12,0,0,1,0,0H52.41V28.26h2.48v-.05s0-.07,0-.11,0-.11,0-.17,0,0,0-.05H52.41V18.59h-.1l0,0h0l-.21.1-.37.16-.07,0-.09,0-.18.07-.13,0-.22.06-.1,0-.11,0-.11,0h-.1v8.67h-24V17.26l-.05,0c-.3.17-.7.14-1,.36a1.21,1.21,0,0,0-.16,1.23l0,.11s0,0,0,0h0v0a.14.14,0,0,1,0,.06v.08a0,0,0,0,0,0,0v.1h0a.76.76,0,0,1-.51.67,1.24,1.24,0,0,1-.27,0v7.85H23.09l0,.38h1.5V40.34H21.92l0,.19a.24.24,0,0,0,0,.08l0,.1h2.79v2.53h.54l.29,0h.42l.16,0h.26l.2,0V40.71h5.64c-.09-.13-.17-.25-.24-.37H26.5V28.26h24V40.34h-.91a1.82,1.82,0,0,0-.27.15l.09,0h0l.29.17h.8v.55l.2.16.11.09.35.32.1.09.12.12v0l.09.1.06.07.1.12.09.13.09.13.08.16h.18l0,0s0,0,0,0a.77.77,0,0,1,.07.16.14.14,0,0,0,0,.06s0,0,0,.07,0,0,0,.06a.07.07,0,0,1,0,0,.11.11,0,0,1,0,0v.19l.12,0V40.71H55Zm.72-12.53c0-.1,0-.19,0-.3h-.81v.05a1,1,0,0,1,0,.17s0,.08,0,.12v0h.77Zm22-13.37V1.64A16,16,0,0,0,76,1.73l-.18,0V14.81H53l-.06-.08.08-.1h0l.38-.47.37-.46h0L60.6,5.16a14.32,14.32,0,0,1-2.26-.33l-5.93,7.38V3.32c-.62-.12-1.24-.26-1.87-.41V11.8L42.06,1.23c-.82,0-1.65,0-2.48.05l10.47,13,.28.34.05.07-.05.07H26.5V.83C25.88.7,25.26.58,24.63.48V14.8H9.6c0,.13,0,.25,0,.38H24.63v12.7H7.94V19.23a22.66,22.66,0,0,1-1.87,2.28v6.37H1.14c-.06.13-.11.25-.16.38H6.07V40.34H0c0,.12,0,.25,0,.37H6.07V55.39a17.61,17.61,0,0,0,1.87,1.69V40.71H24.63v16a9.74,9.74,0,0,1,1.62,0l.25,0v-16h24V55l.73,0c.38,0,.76.08,1.13.14V40.71H75.8V52.34c.64-.29,1.28-.57,1.87-.89V41.13a6.79,6.79,0,0,1-.94-3.92,5.08,5.08,0,0,1,.94-2.32V28.26h8.94l.61-.38H77.67V15.18h20l0-.37Zm-1.87.37v12.7H52.41V15.52l0,0,.31-.32Zm-49.3,0h24v12.7h-24ZM7.94,40.34V28.26H24.63V40.34Zm18.56,0V28.26h24V40.34Zm25.91,0V28.26H75.8V40.34Zm3.25-12.16c0-.1,0-.19,0-.3h-.8v.05a1,1,0,0,1,0,.17s0,.08,0,.12v0h.77Zm-.72,12.53,0,0,0,0-.07-.09,0,0-.06-.12v0l0,0H52.41V28.26h2.48v-.05s0-.07,0-.11,0-.11,0-.17,0,0,0-.05H52.41V18.59h-.1l0,0h0l-.21.1-.37.16-.07,0-.09,0-.18.07-.13,0-.22.06-.1,0-.11,0-.11,0h-.1v8.67h-24V17.26l-.05,0c-.3.17-.7.14-1,.36a1.21,1.21,0,0,0-.16,1.23l0,.11s0,0,0,0h0v0a.14.14,0,0,1,0,.06v.08a0,0,0,0,0,0,0v.1h0a.76.76,0,0,1-.51.67,1.24,1.24,0,0,1-.27,0v7.85H23.09l0,.38h1.5V40.34H21.92l0,.19a.24.24,0,0,0,0,.08l0,.1h2.79v2.53h.54l.29,0h.42l.16,0h.26l.2,0V40.71h5.64c-.09-.13-.17-.25-.24-.37H26.5V28.26h24V40.34h-.91a1.82,1.82,0,0,0-.27.15l.09,0h0l.29.17h.8v.55l.2.16.11.09.35.32.1.09.12.12v0l.09.1.06.07.1.12.09.13.09.13.08.16h.18l0,0s0,0,0,0a.77.77,0,0,1,.07.16.14.14,0,0,0,0,.06s0,0,0,.07,0,0,0,.06v0a.11.11,0,0,1,0,0v.19l.12,0V40.71ZM11,40.34c.07.13.16.25.24.37H21.84l0-.1a.24.24,0,0,1,0-.08l0-.19ZM55.66,28.18a2.83,2.83,0,0,1,0-.3h-.8v.05a1,1,0,0,1,0,.17s0,.08,0,.12v0h.77Zm-.72,12.53,0,0,0,0-.07-.09,0,0-.06-.12v0s0,0,0,0H52.41V28.26h2.48v-.05s0-.07,0-.11,0-.11,0-.17,0,0,0-.05H52.41V18.59h-.1l0,0h0l-.21.1-.37.16-.07,0-.09,0-.18.07-.13,0-.22.06-.1,0-.11,0-.11,0h-.1v8.67h-24V17.26l-.05,0c-.3.17-.7.14-1,.36a1.21,1.21,0,0,0-.16,1.23l0,.11s0,0,0,0h0v0a.14.14,0,0,1,0,.06v.08a0,0,0,0,0,0,0v.1h0a.76.76,0,0,1-.51.67,1.24,1.24,0,0,1-.27,0v7.85H23.09l0,.38h1.5V40.34H21.92l0,.19a.24.24,0,0,0,0,.08l0,.1h2.79v2.53h.54l.29,0h.42l.16,0h.26l.2,0V40.71h5.64c-.09-.13-.17-.25-.24-.37H26.5V28.26h24V40.34h-.91a1.82,1.82,0,0,0-.27.15l.09,0h0l.29.17h.8v.55l.2.16.11.09.35.32.1.09.12.12v0l.09.1.06.07.1.12.09.13.09.13.08.16h.18l0,0s0,0,0,0a.77.77,0,0,1,.07.16.14.14,0,0,0,0,.06s0,0,0,.07,0,0,0,.06v0a.11.11,0,0,1,0,0v.19l.12,0V40.71ZM11,40.34c.07.13.16.25.24.37H21.84l0-.1a.24.24,0,0,1,0-.08l0-.19ZM55.66,28.18a2.83,2.83,0,0,1,0-.3h-.8v.05a1,1,0,0,1,0,.17s0,.08,0,.12v0h.77Zm-.72,12.53,0,0,0,0-.07-.09,0,0-.06-.12v0s0,0,0,0H52.41V28.26h2.48v-.05s0-.07,0-.11,0-.11,0-.17,0,0,0-.05H52.41V18.59h-.1l0,0h0l-.21.1-.37.16-.07,0-.09,0-.18.07-.13,0-.22.06-.1,0-.11,0-.11,0h-.1v8.67h-24V17.26l-.05,0c-.3.17-.7.14-1,.36a1.21,1.21,0,0,0-.16,1.23l0,.11s0,0,0,0h0v0a.14.14,0,0,1,0,.06v.08a0,0,0,0,0,0,0v.1h0a.76.76,0,0,1-.51.67,1.24,1.24,0,0,1-.27,0v7.85H23.09l0,.38h1.5V40.34H21.92l0,.19a.24.24,0,0,0,0,.08l0,.1h2.79v2.53h.54l.29,0h.42l.16,0h.26l.2,0V40.71h5.64c-.09-.13-.17-.25-.24-.37H26.5V28.26h24V40.34h-.91a1.82,1.82,0,0,0-.27.15l.09,0h0l.29.17h.8v.55l.2.16.11.09.35.32.1.09.12.12v0l.09.1.06.07.1.12.09.13.09.13.08.16h.18l0,0s0,0,0,0a.77.77,0,0,1,.07.16.14.14,0,0,0,0,.06s0,0,0,.07,0,0,0,.06v0a.11.11,0,0,1,0,0v.19l.12,0V40.71ZM11,40.34c.07.13.16.25.24.37H21.84l0-.1a.24.24,0,0,1,0-.08l0-.19ZM55.66,28.18a2.83,2.83,0,0,1,0-.3h-.8v.05a1,1,0,0,1,0,.17s0,.08,0,.12v0h.77Zm-.72,12.53,0,0,0,0-.07-.09,0,0-.06-.12v0s0,0,0,0H52.41V28.26h2.48v-.05s0-.07,0-.11,0-.11,0-.17,0,0,0-.05H52.41V18.59h-.1l0,0h0l-.21.1-.37.16-.07,0-.09,0-.18.07-.13,0-.22.06-.1,0-.11,0-.11,0h-.1v8.67h-24V17.26l-.05,0c-.3.17-.7.14-1,.36a1.21,1.21,0,0,0-.16,1.23l0,.11s0,0,0,0h0v0a.14.14,0,0,1,0,.06v.08a0,0,0,0,0,0,0v.1h0a.76.76,0,0,1-.51.67,1.24,1.24,0,0,1-.27,0v7.85H23.09l0,.38h1.5V40.34H21.92l0,.19a.24.24,0,0,0,0,.08l0,.1h2.79v2.53h.54l.29,0h.42l.16,0h.26l.2,0V40.71h5.64c-.09-.13-.17-.25-.24-.37H26.5V28.26h24V40.34h-.91a1.82,1.82,0,0,0-.27.15l.09,0h0l.29.17h.8v.55l.2.16.11.09.35.32.1.09.12.12v0l.09.1.06.07.1.12.09.13.09.13.08.16h.18l0,0s0,0,0,0a.77.77,0,0,1,.07.16.14.14,0,0,0,0,.06s0,0,0,.07,0,0,0,.06v0a.11.11,0,0,1,0,0v.19l.12,0V40.71ZM11,40.34c.07.13.16.25.24.37H21.84l0-.1a.24.24,0,0,1,0-.08l0-.19ZM55.66,28.18a2.83,2.83,0,0,1,0-.3h-.8v.05a1,1,0,0,1,0,.17s0,.08,0,.12v0h.77Zm-.72,12.53,0,0,0,0-.07-.09,0,0-.06-.12v0s0,0,0,0H52.41V28.26h2.48v-.05s0-.07,0-.11,0-.11,0-.17,0,0,0-.05H52.41V18.59h-.1l0,0h0l-.21.1-.37.16-.07,0-.09,0-.18.07-.13,0-.22.06-.1,0-.11,0-.11,0h-.1v8.67h-24V17.26l-.05,0c-.3.17-.7.14-1,.36a1.21,1.21,0,0,0-.16,1.23l0,.11s0,0,0,0h0v0a.14.14,0,0,1,0,.06v.08a0,0,0,0,0,0,0v.1h0a.76.76,0,0,1-.51.67,1.24,1.24,0,0,1-.27,0v7.85H23.09l0,.38h1.5V40.34H21.92l0,.19a.24.24,0,0,0,0,.08l0,.1h2.79v2.53h.54l.29,0h.42l.16,0h.26l.2,0V40.71h5.64c-.09-.13-.17-.25-.24-.37H26.5V28.26h24V40.34h-.91a1.82,1.82,0,0,0-.27.15l.09,0h0l.29.17h.8v.55l.2.16.11.09.35.32.1.09.12.12v0l.09.1.06.07.1.12.09.13.09.13.08.16h.18l0,0s0,0,0,0a.77.77,0,0,1,.07.16.14.14,0,0,0,0,.06s0,0,0,.07,0,0,0,.06v0a.11.11,0,0,1,0,0v.19l.12,0V40.71ZM11,40.34c.07.13.16.25.24.37H21.84l0-.1a.24.24,0,0,1,0-.08l0-.19ZM55.66,28.18a2.83,2.83,0,0,1,0-.3h-.8v.05a1,1,0,0,1,0,.17s0,.08,0,.12v0h.77Zm-.72,12.53,0,0,0,0-.07-.09,0,0-.06-.12v0s0,0,0,0H52.41V28.26h2.48v-.05s0-.07,0-.11,0-.11,0-.17,0,0,0-.05H52.41V18.59h-.1l0,0h0l-.21.1-.37.16-.07,0-.09,0-.18.07-.13,0-.22.06-.1,0-.11,0-.11,0h-.1v8.67h-24V17.26l-.05,0c-.3.17-.7.14-1,.36a1.21,1.21,0,0,0-.16,1.23l0,.11s0,0,0,0h0v0a.14.14,0,0,1,0,.06v.08a0,0,0,0,0,0,0v.1h0a.76.76,0,0,1-.51.67,1.24,1.24,0,0,1-.27,0v7.85H23.09l0,.38h1.5V40.34H21.92l0,.19a.24.24,0,0,0,0,.08l0,.1h2.79v2.53h.54l.29,0h.42l.16,0h.26l.2,0V40.71h5.64c-.09-.13-.17-.25-.24-.37H26.5V28.26h24V40.34h-.91a1.82,1.82,0,0,0-.27.15l.09,0h0l.29.17h.8v.55l.2.16.11.09.35.32.1.09.12.12v0l.09.1.06.07.1.12.09.13.09.13.08.16h.18l0,0s0,0,0,0a.77.77,0,0,1,.07.16.14.14,0,0,0,0,.06s0,0,0,.07,0,0,0,.06v0a.11.11,0,0,1,0,0v.19l.12,0V40.71ZM11,40.34c.07.13.16.25.24.37H21.84l0-.1a.24.24,0,0,1,0-.08l0-.19ZM55.66,28.18a2.83,2.83,0,0,1,0-.3h-.8v.05a1,1,0,0,1,0,.17s0,.08,0,.12v0h.77Zm-.72,12.53,0,0,0,0-.07-.09,0,0-.06-.12v0s0,0,0,0H52.41V28.26h2.48v-.05s0-.07,0-.11,0-.11,0-.17,0,0,0-.05H52.41V18.59h-.1l0,0h0l-.21.1-.37.16-.07,0-.09,0-.18.07-.13,0-.22.06-.1,0-.11,0-.11,0h-.1v8.67h-24V17.26l-.05,0c-.3.17-.7.14-1,.36a1.21,1.21,0,0,0-.16,1.23l0,.11s0,0,0,0h0v0a.14.14,0,0,1,0,.06v.08a0,0,0,0,0,0,0v.1h0a.76.76,0,0,1-.51.67,1.24,1.24,0,0,1-.27,0v7.85H23.09l0,.38h1.5V40.34H21.92l0,.19a.24.24,0,0,0,0,.08l0,.1h2.79v2.53h.54l.29,0h.42l.16,0h.26l.2,0V40.71h5.64c-.09-.13-.17-.25-.24-.37H26.5V28.26h24V40.34h-.91a1.82,1.82,0,0,0-.27.15l.09,0h0l.29.17h.8v.55l.2.16.11.09.35.32.1.09.12.12v0l.09.1.06.07.1.12.09.13.09.13.08.16h.18l0,0s0,0,0,0a.77.77,0,0,1,.07.16.14.14,0,0,0,0,.06s0,0,0,.07,0,0,0,.06v0a.11.11,0,0,1,0,0v.19l.12,0V40.71ZM11,40.34c.07.13.16.25.24.37H21.84l0-.1a.24.24,0,0,1,0-.08l0-.19ZM55.66,28.18a2.83,2.83,0,0,1,0-.3h-.8v.05a1,1,0,0,1,0,.17s0,.08,0,.12v0h.77Zm-.72,12.53,0,0,0,0-.07-.09,0,0-.06-.12v0s0,0,0,0H52.41V28.26h2.48v-.05s0-.07,0-.11,0-.11,0-.17,0,0,0-.05H52.41V18.59h-.1l0,0h0l-.21.1-.37.16-.07,0-.09,0-.18.07-.13,0-.22.06-.1,0-.11,0-.11,0h-.1v8.67h-24V17.26l-.05,0c-.3.17-.7.14-1,.36a1.21,1.21,0,0,0-.16,1.23l0,.11s0,0,0,0h0v0s0,0,0,.06v.08a0,0,0,0,0,0,0v.1h0a.76.76,0,0,1-.51.67,1.24,1.24,0,0,1-.27,0v7.85H23.09l0,.38h1.5V40.34H21.92l0,.19a.24.24,0,0,0,0,.08l0,.1h2.79v2.53h.54l.29,0h.42l.16,0h.26l.2,0V40.71h5.64c-.09-.13-.17-.25-.24-.37H26.5V28.26h24V40.34h-4.1l.2.09a5.2,5.2,0,0,0,2.67.13l.14,0h0l.29.17h.8v.55l.2.16.11.09.35.32.1.09.12.12v0l.09.1.06.07.1.12.09.13.09.13.08.16h.18l0,0s0,0,0,0a.77.77,0,0,1,.07.16.14.14,0,0,0,0,.06s0,0,0,.07,0,0,0,.06v0a.11.11,0,0,1,0,0v.19l.12,0V40.71ZM11,40.34c.07.13.16.25.24.37H21.84l0-.1a.24.24,0,0,1,0-.08l0-.19Zm38.62,0H46.45l.2.09a5.2,5.2,0,0,0,2.67.13l.14,0-.09,0A1.82,1.82,0,0,1,49.64,40.34Zm2.78,0V28.26h3.33l-.09-.08,0,0,0,0-.06-.06-.05,0-.06,0-.1-.07,0,0H52.41v-.66l-.07,0-.09.05h0l0,0,0,0-.15.13,0,0-.1.09-.39.37-.1.08-.23.17-.09.06-.06,0-.05,0h0a1.55,1.55,0,0,1-.36.13V40.34h-5s0,0,0,0,0,.22.08.33h4.91V53.66h.32l.25,0,.12,0,.14,0h0l.23,0h.05l.1,0,.16,0h0l.37,0h.05l.07,0V40.72h7.51c0-.13,0-.25,0-.38Zm7.55,0c0,.12,0,.25,0,.37h3.23l.22-.37Zm4,0h-.33v.38H64Zm-11.54,0V28.26h3.33l-.09-.08,0,0,0,0-.06-.06-.05,0-.06,0-.1-.07,0,0H52.41v-.66l-.07,0-.09.05h0l0,0,0,0-.15.13,0,0-.1.09-.39.37-.1.08-.23.17-.09.06-.06,0-.05,0h0a1.55,1.55,0,0,1-.36.13V40.34h-5s0,0,0,0,0,.22.08.33h4.91V53.66h.32l.25,0,.12,0,.14,0h0l.23,0h.05l.1,0,.16,0h0l.37,0h.05l.07,0V40.72h7.72v-.06c0-.1,0-.2,0-.31H52.42Zm7.76,0h0l0,.31v.05h2.9v0l.2-.35Zm3.79,0h-.34v.38H64Z" transform="translate(0.05 0)"/><path class="cls-2" d="M80.09,45.76l-2.42,0-1.87,0L72,45.62h-.17l-3.22,0h0l-6.43-.11-3.49-.06h-1.1l-1.81,0-1,0h-.4l-1.9,0-1.87,0-15-.26h-.2l-5.71-.09h-.36l-2.73,0-1.87,0-1.69,0h-.14l-6.65-.11h0L14,44.65l-6-.1H7.33l-1.25,0L0,44.42c0-.55,0-1.11,0-1.67,0-.37,0-.74,0-1.11l6.11.14,1.18,0h0l.66,0,2.81.06,1.5,0,8.93.2h.63l2.83.06h1l.83,0h.06l2.68.06,3.83.08h.24l9.16.2h.15l8,.17,1.23,0h1l1.58,0h1.07l1.1,0,3.91.08h.44l10.77.23h.16l4,.09,1.67,0,.2,0,1.36.19c.15.26.29.52.42.79A10.46,10.46,0,0,1,80.09,45.76Z" transform="translate(0.05 0)"/><path class="cls-3" d="M80.09,45.76l-2.42,0-1.87,0L72,45.62h-.17l-3.22,0h0l-6.43-.11-3.49-.06h-1.1l-1.81,0-1,0h-.4l-1.9,0-1.87,0-15-.26h-.2l-5.71-.09h-.36l-2.73,0-1.87,0-1.69,0h-.14l-6.65-.11h0L14,44.65l-6-.1H7.33l-1.25,0L0,44.42c0-.55,0-1.11,0-1.67l6.13.12,1.26,0h.6l3.55.07,2,0,3.38.07,3.36.07h0l1.92,0h0l2.12,0h.33l1.86,0h0l1,0h.93l5.49.11h.22l16.4.33,1.87,0,1.59,0h.21l1.3,0H56l3.94.08h.45L65,44h0l5.13.1h0l1.44,0h.14l4.06.08,1.87,0,1.78,0A11,11,0,0,1,80.09,45.76Z" transform="translate(0.05 0)"/><path class="cls-4" d="M73.14,53.67l-.15.1-.32.23h0c-.16.13-.33.26-.48.4l-.28.26-.21.22-.39.43-.1.11-.27.33-.36.44-.5.63a1.33,1.33,0,0,0-.14.19c-.28.33-.55.67-.84,1l-7.37,0h-2l0,0h0l-.2-.11-.09-.05-.68-.4-.06,0-.95-.53-.58-.29a15.6,15.6,0,0,0-2-.8,16.71,16.71,0,0,0-2.71-.65c-.38-.06-.76-.11-1.13-.14l-.74-.05a17.29,17.29,0,0,0-5.9.71l-.78.26-.14.05,0-.13a2.2,2.2,0,0,1,.76-1,6.64,6.64,0,0,1,1.89-3.71l4.09-1.77,0,0a9.71,9.71,0,0,1,1.87-1l.17,0a6.36,6.36,0,0,0,1.94-1.07c.23-.14.27-.66.24-1.19v-.13h-.12l0-.06,0-.09v0h-.11a2.6,2.6,0,0,1-.13-.36,7.08,7.08,0,0,1-.28-1,.06.06,0,0,0,0,0,3.57,3.57,0,0,1,0-.46,1.3,1.3,0,0,1,0-.34.8.8,0,0,1,0-.15H54l-.2,0h-.06l0,0-1.28.11h-.36a.68.68,0,0,0,0-.14l-.13,0h0a8.69,8.69,0,0,1-1.35,0,36.38,36.38,0,0,1-3.87-.52,7.37,7.37,0,0,1-4.12-.29,3.12,3.12,0,0,1-.88-.6h0A2.68,2.68,0,0,1,41,40.7a1.16,1.16,0,0,1,0-.37c.15-1.69,4.7-.55,5.63-.08l.16.08a6.15,6.15,0,0,0,2.53.06l.15,0s-.06,0-.08,0l0,0a4.69,4.69,0,0,1,1.24-.53,3.18,3.18,0,0,1,.81-.08,4.57,4.57,0,0,1,.83.07h0l.21-.05a.48.48,0,0,0,.32-.59,1.61,1.61,0,0,1,.09-.84s.42.11.37-.42h0a1.14,1.14,0,0,0-.07-.32,1.16,1.16,0,0,1,0-.18h0a3.91,3.91,0,0,1,.13-1.78l.21-.26v-.06l-.11-.58h0l0-.14-.06-2s0-3.13,1-3.58v-.14l0-.24a2.43,2.43,0,0,1-.7-.34.73.73,0,0,1-.14-.16h0a.26.26,0,0,1,0-.21.42.42,0,0,1,.13-.21,2.24,2.24,0,0,0,.66-1.19L54.4,26l0-.06c-.18-.67-.4-1.36-.6-1.95a1.54,1.54,0,0,1,0-.17.42.42,0,0,1,0-.1l-.06-.17-.06,0a5.14,5.14,0,0,1-.78.07,4.27,4.27,0,0,1-4.16-5.19c0-.07,0-.14,0-.2l0-.11a.7.7,0,0,0-.45.06c-.2.09-.39.24-.59.35a1.44,1.44,0,0,1-.65.15,1.4,1.4,0,0,1-.41-.06h0a1.4,1.4,0,0,1-.47-.24h.11l.08,0h0l.08,0h0l.08,0h0l.08,0h0l.09,0h0l.07,0h0a.21.21,0,0,0,.08-.06,1.69,1.69,0,0,0,.28-.26,5.12,5.12,0,0,0,.66-1.08l.51-1a5.54,5.54,0,0,1,.32-.59,2.66,2.66,0,0,1,.28-.38,1.94,1.94,0,0,1,.31-.26,1.67,1.67,0,0,1,.75-.22c.42,0,.85,0,1.27,0A5.09,5.09,0,0,0,53,14a4.32,4.32,0,0,1,.77-.25h0a1.1,1.1,0,0,1,.31,0,1.91,1.91,0,0,1,.88.22,3.39,3.39,0,0,1,1.06.78l.13.15.3.37.25.3c.41.47.91.83,1.31,1.31a2.25,2.25,0,0,1,.59,1.76h0a.28.28,0,0,1,0,.13.09.09,0,0,1,0,.05l0,.09v0l0,.1a2.18,2.18,0,0,0-.18.71v.11h0a4.2,4.2,0,0,0,.26.92,1.63,1.63,0,0,1,.08.43v.08h0v.07h0a.5.5,0,0,1,0,.12h0v0h0a.14.14,0,0,1,0,.06v0l0,.05,0,0,0,0v0l0,.06,0,0,.13.07,0,0a18.58,18.58,0,0,0,2.07.36,2,2,0,0,1,.65.24,5.78,5.78,0,0,1,2.62,2.73A7.87,7.87,0,0,0,65,27.13a2.59,2.59,0,0,1,.57.75l.2.37c.13.26.21.46.21.46S68,30,67.72,31.3a6.36,6.36,0,0,0,.84,1.85,21.57,21.57,0,0,1,1.37,3.75,2.5,2.5,0,0,1,.33,1.1,5.27,5.27,0,0,0,.36,1.49s.08.42.19.84c0,.13.07.26.11.38a1.27,1.27,0,0,0,.24.5c.23.21.11.66.11.66a7.72,7.72,0,0,0,.45,1,.73.73,0,0,1,.09.35,3.63,3.63,0,0,1,0,.57s0,.17,0,.4a2.33,2.33,0,0,0,.12,1.1.72.72,0,0,1,.11.35c.07.51,0,1.28.22,1.46s.15,2.42.15,2.42S72.77,52.19,73.14,53.67Z" transform="translate(0.05 0)"/><path class="cls-5" d="M62.44,48.27l-.28.23-1.37,1.12-.28.23-1.2,1s-3.39,2-6.9,3.63L51.28,55l-.73-.05a17.39,17.39,0,0,0-5.91.72,4.16,4.16,0,0,1,0-.79,6.6,6.6,0,0,1,1.88-3.68l4-1.75h0l1.86-.81,2.82-1.22.89.1,1.62.2Z" transform="translate(0.05 0)"/><path class="cls-6" d="M62.44,48.27l-.28.23-1.37,1.12-.28.23-1.2,1s-3.39,2-6.9,3.63L51.28,55l-.73-.05a17.39,17.39,0,0,0-5.91.72,4.16,4.16,0,0,1,0-.79,6.6,6.6,0,0,1,1.88-3.68l4-1.75h0l1.86-.81,2.82-1.22.89.1,1.62.2Z" transform="translate(0.05 0)"/><path class="cls-7" d="M58.83,56.48v.09l0,.4v.09l0,.15,0,.23-.06,0-.95-.52-.58-.29a16.21,16.21,0,0,0-2-.8l.18-.34,1.14.33,1.6.48.3.08.23.07Z" transform="translate(0.05 0)"/><path class="cls-6" d="M58.83,56.48v.09l0,.4v.09l0,.15,0,.23-.06,0-.95-.52-.58-.29a16.21,16.21,0,0,0-2-.8l.18-.34,1.14.33,1.6.48.3.08.23.07Z" transform="translate(0.05 0)"/><polygon class="cls-8" points="56.34 55.21 58.53 56.1 58.85 57.08 56.6 56.19 56.34 55.21"/><polygon class="cls-6" points="56.34 55.21 58.53 56.1 58.85 57.08 56.6 56.19 56.34 55.21"/><path class="cls-7" d="M70.58,56.2l-.5.63-.15.18c-.27.34-.55.67-.84,1l0,0-9.29,0h0l-.07,0h0l-.2-.12-.09-.05-.68-.39-.05,0V57h0v-.32h0v-.13h.14Z" transform="translate(0.05 0)"/><path class="cls-9" d="M61.73,58h-.95l-1.11,0-.19-.11V56.72l2.09-.11h.09l0,.38v.17l0,.85Z" transform="translate(0.05 0)"/><path class="cls-7" d="M61.64,58h-.91l-1,0h0l-.2-.11-.09-.05V56.72l2.19-.12h0l0,.38,0,.18,0,.84Z" transform="translate(0.05 0)"/><path class="cls-10" d="M61.64,58h-.91l-1,0h0l-.2-.11-.09-.05V56.72l2.19-.12h0l0,.38,0,.18,0,.84Z" transform="translate(0.05 0)"/><path class="cls-9" d="M58.82,56.57l11.76-.37-.5.63-.15.18-8.25.15H61.6l-2.13,0h-.8V57h0v-.31h0v-.14Z" transform="translate(0.05 0)"/><path class="cls-8" d="M71.31,55.31l-.1.12-.28.33c-.12.14-.24.29-.35.44l-.5.63L61.67,57h-.09l-2.12,0h-.79a.46.46,0,0,1-.35-.5l0-.19,0-.18v-.1l0-.2V55.8Z" transform="translate(0.05 0)"/><path class="cls-7" d="M71.78,54.27l.4.14-.27.26-.21.21-.39.43-.1.12-.28.33-12.3.33h-.15l-.06-.23-.5-1.92,11.89.28h.68Z" transform="translate(0.05 0)"/><path class="cls-5" d="M72.67,54a6.26,6.26,0,0,0-.49.41l-.27.26-.21.21-.39.43-.1.11a54,54,0,0,1-8.92.35,12.19,12.19,0,0,0-3.66.32h0l-.14,0-.12,0-.32.09-.71.25-.22.09a15.6,15.6,0,0,0-2-.8,17.85,17.85,0,0,0-2.71-.66c-.38-.06-.76-.1-1.14-.14l-.73-.05a17.3,17.3,0,0,0-5.9.72l-.78.26v0a2.27,2.27,0,0,1,.76-1,19.13,19.13,0,0,1,3.77-2.26l1.32-.56h0l.83-.35,1.87-.79,3.95-1.68,0,0,.91-.38.84-.36a6.61,6.61,0,0,1,1.77-.22h.52l.42,0h.18l.12,0,.14,0,.14,0,.28,0,.43.09.21,0,.65.16.2.06.14,0,.17,0c.4.12.79.26,1.19.4l.21.08.2.07h0l.36.14c.68.28,1.35.58,2,.9l.21.1.12.06.22.12.22.11.11.06.1.06.11.06.72.41.2.12.1,0,.37.24.18.11.26.17.17.11.09,0,.16.11.09.06.17.13.09.06h0l.21.16h0l.13.09.12.1a2.31,2.31,0,0,1,.23.18l.1.08,0,0,0,0,.09.08,0,.05a.17.17,0,0,1,.06.06,1.51,1.51,0,0,1,.21.23l.14.18Z" transform="translate(0.05 0)"/><path class="cls-11" d="M52.66,43.39a2.26,2.26,0,0,1-.72.15A28.47,28.47,0,0,1,46.77,43s-4.35,1-5.53-1.74,4.38-1.36,5.41-.83a5.2,5.2,0,0,0,2.67.13c.45-.06.76-.13.76-.13S53.75,42.86,52.66,43.39Z" transform="translate(0.05 0)"/><path class="cls-12" d="M57.41,38.51l-1,4.76-2.9.25-1.45.13c.36-1.48-2.72-3.16-2.72-3.16A3.7,3.7,0,0,1,52.18,40h.06c.31-.05.62-.23.53-.65a1.48,1.48,0,0,1,.09-.83s.56.15.29-.73a3.86,3.86,0,0,1,.09-2l.21-.26.32-1,1.33,1.36Z" transform="translate(0.05 0)"/><path class="cls-6" d="M57.41,38.54l-1,4.76-2.9.25-1.45.13c.36-1.48-2.72-3.16-2.72-3.16A3.7,3.7,0,0,1,52.18,40h.06c.31,0,.62-.23.53-.65a1.49,1.49,0,0,1,.09-.83s.56.15.29-.73a3.86,3.86,0,0,1,.09-2l.21-.26.33-1,1.33,1.36Z" transform="translate(0.05 0)"/><path class="cls-9" d="M54.13,43.24l-.41.28-1.45.13c.35-1.48-2.72-3.16-2.72-3.16A3.62,3.62,0,0,1,52.36,40h.06a5.52,5.52,0,0,0,1.18,1.22C54.13,41.44,55.29,42.41,54.13,43.24Z" transform="translate(0.05 0)"/><path class="cls-9" d="M52.66,43.39a2.26,2.26,0,0,1-.72.15c.15-1.27-2.06-2.65-2.62-3,.45-.06.76-.13.76-.13S53.75,42.86,52.66,43.39Z" transform="translate(0.05 0)"/><path class="cls-12" d="M54,43.24l-.42.28-1.45.13c.36-1.48-2.72-3.16-2.72-3.16A3.62,3.62,0,0,1,52.18,40h.06a5.52,5.52,0,0,0,1.18,1.22C54,41.44,55.11,42.41,54,43.24Z" transform="translate(0.05 0)"/><path class="cls-6" d="M54,43.3l-.42.28-1.45.13c.36-1.48-2.72-3.16-2.72-3.16A3.62,3.62,0,0,1,52.18,40h.06a5.52,5.52,0,0,0,1.18,1.22C54,41.5,55.11,42.47,54,43.3Z" transform="translate(0.05 0)"/><path class="cls-11" d="M60,23s-5.56,7.77-5.12,6.35c.29-.93-.52-3.6-1.1-5.32-.31-.9-.55-1.53-.55-1.53s3.19-2.75,3.13-2.13c0,.16.22.42.59.7A25.83,25.83,0,0,0,60,23Z" transform="translate(0.05 0)"/><path class="cls-9" d="M56.93,21.07A4.23,4.23,0,0,1,53.77,24c-.31-.9-.56-1.53-.56-1.53s3.2-2.75,3.14-2.13C56.33,20.52,56.57,20.77,56.93,21.07Z" transform="translate(0.05 0)"/><path class="cls-11" d="M57.1,19.71a4.23,4.23,0,1,1-4.23-4.23h0a4.2,4.2,0,0,1,4.22,4.19Z" transform="translate(0.05 0)"/><path class="cls-9" d="M72.67,54a6.26,6.26,0,0,0-.49.41l-.27.26-.21.21a12.44,12.44,0,0,1-1.89-.66h0a3.45,3.45,0,0,1-1.13-.73c-.76-.83-3.25-3-8.17-3.64a22.49,22.49,0,0,0-3.57-.19l-.5,0-.08-.45,0,0,.92-.39.83-.35a6.3,6.3,0,0,1,1.78-.22h.51l.43,0h.18l.11,0h.14l.14,0,.29,0,.43.08.21.05.65.16.2.05.13,0,.17,0c.4.12.8.25,1.19.4l.21.07.2.08h0l.36.15c.68.27,1.35.58,2,.89l.22.11.11.06.22.12.22.11.11.06.11.06.1.06c.25.13.49.27.73.41l.19.11.1.06.38.23.18.12.26.16.17.12.08,0,.16.11.09.06.18.14.08.06,0,0,.2.15h0l.12.1.13.09.22.18.11.09,0,0,0,0,.08.08.06.06.06.05.21.23.14.18Z" transform="translate(0.05 0)"/><path class="cls-12" d="M72.2,49.6s.42,2.71.79,4.17l-.32.23h0c-.16.13-.33.26-.48.4l-.28.26a10.51,10.51,0,0,1-1.42-.43,5,5,0,0,1-1.81-1c-.74-.82-3.16-2.91-7.89-3.61a21.71,21.71,0,0,0-3.69-.22h-.66l0-.2-.29-1.7-.27-1.58h0l0-.18h0v-.07l-.05-.31-.14-.81-.06-.38a.73.73,0,0,1,0-.13v-.11a.15.15,0,0,0,0-.06v-.12s0-.06,0-.09h0c0-.06,0-.11,0-.17v-.12q0-.24-.06-.51l-.06-.46s0-.08,0-.12a.22.22,0,0,0,0-.08h0a.13.13,0,0,0,0-.06,1.57,1.57,0,0,0,0-.23.07.07,0,0,0,0,0,.37.37,0,0,0,0-.12l0-.14h0a.13.13,0,0,0,0-.06.37.37,0,0,0,0-.09l0-.14,0-.06a.36.36,0,0,0,0-.1,1.68,1.68,0,0,0-.17-.42h0l0,0,0,0-.07-.09,0,0s0-.08-.07-.12v0s0,0,0,0a25.16,25.16,0,0,1-.92-3.25l-.34-1.62h0l0-.18-.11-.54v-.06h0l0-1.91s0-3.11,1-3.55l0-.39s-.78-.23-.87-.58a.29.29,0,0,1,0-.16h0a.52.52,0,0,1,.12-.17s0,0,0,0a2.13,2.13,0,0,0,.61-1.14l.32-.52c.62-1,2-3,2.58-3.27a4.47,4.47,0,0,0,1.39-.83l.14,0h0a17.82,17.82,0,0,0,2,.36,2.18,2.18,0,0,1,.64.23,5.79,5.79,0,0,1,2.61,2.72A8.08,8.08,0,0,0,65,27.4a1.79,1.79,0,0,1,.42.49c.08.12.15.25.22.37.2.37.34.7.34.7s1.92,1.31,1.68,2.58a6.09,6.09,0,0,0,.83,1.83A21.3,21.3,0,0,1,69.8,37.1a2.48,2.48,0,0,1,.32,1.09,5.27,5.27,0,0,0,.36,1.48s.06.31.15.67c0,.13.06.26.1.38a1.83,1.83,0,0,0,.28.66c.24.21.12.65.12.65a7.34,7.34,0,0,0,.44,1,.44.44,0,0,1,.07.19,3.47,3.47,0,0,1,0,.72s0,.11,0,.26a2.41,2.41,0,0,0,.11,1.22.58.58,0,0,1,.08.22c.11.48,0,1.38.24,1.58S72.2,49.6,72.2,49.6Z" transform="translate(0.05 0)"/><path class="cls-11" d="M59.25,44l-.42,1c-.48,1.17-1.26,3.07-1.6,4.07a5.08,5.08,0,0,1-2.54,2.4s-4,1.39-5.47.35,2.66-3.31,3.4-3.46a6.23,6.23,0,0,0,1.92-1.06c.26-.15.28-.74.24-1.32a9.17,9.17,0,0,0-.18-1.28Z" transform="translate(0.05 0)"/><path class="cls-9" d="M64.78,30.11s1.53-.68,2.19.39S64.78,30.11,64.78,30.11Z" transform="translate(0.05 0)"/><path class="cls-9" d="M70.45,43.8s-10.61.09-8.6,1.45,2.31,2,4.64,1.36A8.55,8.55,0,0,0,70.45,43.8Z" transform="translate(0.05 0)"/><path class="cls-9" d="M57.1,19.71a4.22,4.22,0,0,1-.56,2.11,1.27,1.27,0,0,1-.44-.28,2.11,2.11,0,0,1-.31-.55,4.52,4.52,0,0,0-.71-1.12.94.94,0,0,0-.75-.44c-.49,0-.84.8-1.31.64-.14-.05-.35-1-.43-1.13-.19-.39-.3-.28-.65-.11a3.54,3.54,0,0,1-2.12.45,1.16,1.16,0,0,1-.66-.35,3,3,0,0,0-.22-.28l-.14-.08a4.23,4.23,0,0,1,8.3,1.14Z" transform="translate(0.05 0)"/><path class="cls-13" d="M53.11,20c.47.16.82-.59,1.31-.64a.94.94,0,0,1,.75.44,4.52,4.52,0,0,1,.71,1.12,2.11,2.11,0,0,0,.31.55,1.57,1.57,0,0,0,.47.3l.64.28c.37.17.84.32,1.13,0a1.05,1.05,0,0,0,.09-1,3.32,3.32,0,0,1-.26-1,7.57,7.57,0,0,1,.29-1.11A2.29,2.29,0,0,0,58,17.12c-.4-.47-.89-.83-1.3-1.29-.23-.27-.43-.56-.67-.82a3.64,3.64,0,0,0-1-.78,1.89,1.89,0,0,0-.87-.21A3.14,3.14,0,0,0,53,14.3a5,5,0,0,1-1.63.4,3.84,3.84,0,0,0-2,.2,2.86,2.86,0,0,0-.91,1.21l-.51,1a5,5,0,0,1-.65,1.07,1.45,1.45,0,0,1-1,.56,1.42,1.42,0,0,0,1.51.14c.2-.11.39-.26.59-.35a.61.61,0,0,1,.64,0,1.86,1.86,0,0,1,.22.27,1.1,1.1,0,0,0,.67.35A3.49,3.49,0,0,0,52,18.75c.35-.17.46-.28.65.11C52.76,19,53,19.93,53.11,20Z" transform="translate(0.05 0)"/><path class="cls-9" d="M59.25,44l-.42,1-.61.31-1,.54L54.78,46a10.93,10.93,0,0,0-.17-1.28Z" transform="translate(0.05 0)"/><path class="cls-9" d="M63.24,32.33l-.59,2.07a4.12,4.12,0,0,0-.3,2.42,7.53,7.53,0,0,1-.17,3l-.92,2.36A14.83,14.83,0,0,1,59.9,44.6a11.25,11.25,0,0,0-1.5.7l-1,.54L54.66,46c-.89-2.36-.27-2.77.17-2.81a1,1,0,0,1,.34,0l.59-3.73v-2.3a12,12,0,0,1,.56-2.93,6.55,6.55,0,0,0,.56-1.47,6,6,0,0,1-.44-1.13,7.55,7.55,0,0,1-.12-.94s-.41.05-.53-3.32a4.16,4.16,0,0,1,2.39-4.28c3-.92,4.76,1.62,6,3.46S63.24,32.33,63.24,32.33Z" transform="translate(0.05 0)"/><path class="cls-9" d="M62.88,32.15l-.59,2.07A4.09,4.09,0,0,0,62,36.65a7.62,7.62,0,0,1-.18,3L60.9,42a14.68,14.68,0,0,1-1.35,2.42,10.51,10.51,0,0,0-1.5.71l-1,.53-1.21.07-.27-1.58a20.78,20.78,0,0,0-.43-3l.29-1.82V37A11.48,11.48,0,0,1,56,34.07a6.86,6.86,0,0,0,.56-1.47,5.12,5.12,0,0,1-.44-1.13,7.55,7.55,0,0,1-.12-.94s-.42.06-.53-3.32a4.16,4.16,0,0,1,2.39-4.28c3-.92,4.76,1.62,6,3.46S62.88,32.15,62.88,32.15Z" transform="translate(0.05 0)"/><path class="cls-12" d="M63.06,32.15l-.59,2.07a4.09,4.09,0,0,0-.29,2.43,7.62,7.62,0,0,1-.18,3L61.08,42a14.05,14.05,0,0,1-1.36,2.42,10.59,10.59,0,0,0-1.49.71l-1,.53-2.72.15c-.9-2.36-.28-2.77.16-2.81A1,1,0,0,1,55,43l.59-3.72V37a12,12,0,0,1,.56-2.93,6.37,6.37,0,0,0,.56-1.47,5.71,5.71,0,0,1-.44-1.13,7.55,7.55,0,0,1-.12-.94s-.41.06-.53-3.32A4.16,4.16,0,0,1,58,22.93c3-.92,4.76,1.62,6,3.46S63.06,32.15,63.06,32.15Z" transform="translate(0.05 0)"/><path class="cls-9" d="M58.31,45l-1,.53-2.72.15c-.9-2.36-.28-2.77.16-2.81a6.85,6.85,0,0,1,1.55,1.33C56.34,44.46,57.44,44.8,58.31,45Z" transform="translate(0.05 0)"/><path class="cls-12" d="M58.22,45.13l-1,.53-2.72.15c-.9-2.36-.28-2.77.16-2.81a6.85,6.85,0,0,1,1.55,1.33C56.26,44.55,57.36,44.89,58.22,45.13Z" transform="translate(0.05 0)"/><g class="cls-14"><path d="M58.58,21.47c-.29.32-.76.17-1.13,0l-.64-.29a1.2,1.2,0,0,1-.47-.29,2.11,2.11,0,0,1-.31-.55,4.89,4.89,0,0,0-.71-1.13,1,1,0,0,0-.75-.44c-.49.05-.84.81-1.31.65-.14-.05-.35-1-.43-1.13-.2-.39-.3-.28-.65-.11a3.46,3.46,0,0,1-2.12.44,1.06,1.06,0,0,1-.66-.34,2,2,0,0,0-.23-.28.59.59,0,0,0-.63,0c-.21.09-.39.25-.59.35a1.46,1.46,0,0,1-.92.13,1.27,1.27,0,0,1-.75.29,1.44,1.44,0,0,0,1.52.14c.2-.1.38-.26.59-.35a.61.61,0,0,1,.64,0,3,3,0,0,1,.22.28,1.16,1.16,0,0,0,.66.35A3.62,3.62,0,0,0,52,18.74c.35-.17.46-.28.65.11.08.17.29,1.08.43,1.13.47.16.82-.6,1.31-.64a.94.94,0,0,1,.75.44,4.52,4.52,0,0,1,.71,1.12,2.11,2.11,0,0,0,.31.55,1.57,1.57,0,0,0,.47.3l.64.28c.37.17.84.32,1.13,0a.81.81,0,0,0,.17-.59Z" transform="translate(0.05 0)"/><path d="M58.56,18.77a2.16,2.16,0,0,0-.14.57,4,4,0,0,0,.13-.46A.41.41,0,0,0,58.56,18.77Z" transform="translate(0.05 0)"/></g><path class="cls-9" d="M42,55.3s-.53,1.42-1.57,1.45Z" transform="translate(0.05 0)"/><path class="cls-15" d="M42.49,52.44a9.17,9.17,0,0,0-.67-1.18l-.11-.16h.07A.41.41,0,0,0,42,51h0c.65-.55-.69-3.7-1.42-3.76l-2.14-.09H38.3a.52.52,0,0,0,0-.11A3,3,0,0,1,37,46.39c-.41-.45-.92-1-.92-1a1.86,1.86,0,0,1-.6-.4.38.38,0,0,1-.11-.23c0-.28-1-1.14-1.25-1.35l0,0s-.09-.44-.42-.53c-.13,0-.29-.25-.43-.48a6.85,6.85,0,0,1-.37-.71s-.41-.48-.73-.95a3.28,3.28,0,0,1-.24-.37,1.14,1.14,0,0,1-.16-.38c0-.42-.5-.45-.5-.45a5.26,5.26,0,0,1-.42-1c0-.21-.62-.62-.62-.62l-1-1.11a1.2,1.2,0,0,0-.68-1.37c-.95-.59-1.07-2.29-1.07-2.29l-.83-1.81-.09-.18a.66.66,0,0,0,.19-.18.54.54,0,0,0,.05-.45,1.92,1.92,0,0,0-.3-.63l0,0-.08-.11.09-.09,0,0a.45.45,0,0,0,0-.47l-.05-.1a4.5,4.5,0,0,1-.36-1.6l-.71-2a4,4,0,0,0-.75-2A1.79,1.79,0,0,0,24,23a1.24,1.24,0,0,0-.57-.44h0l0-.22c0-.07,0-.12,0-.18a3.33,3.33,0,0,0,.63,0,3.18,3.18,0,0,0,.62,0,4.48,4.48,0,0,0,1.87-.67,4.8,4.8,0,0,0,2.1-2.9h0a5.27,5.27,0,0,0,.13-1.12,4.41,4.41,0,0,0-.1-1s0,0,0-.06l-.09-.35a.14.14,0,0,1,0-.07,2.16,2.16,0,0,0,.67.08A.4.4,0,0,0,29.4,16a.49.49,0,0,0,.13-.2l.12-.3v0h0a1.37,1.37,0,0,0,.07-.29,1.94,1.94,0,0,0,0-.24.53.53,0,0,0,0-.13.47.47,0,0,0,0-.17.06.06,0,0,1,0,0,.56.56,0,0,0,0-.12c-.24-.49-.93-.69-1.07-1.22-.07-.25,0-.57-.21-.74a.81.81,0,0,0-.3-.13,4.81,4.81,0,0,1-1.17-.74,2.24,2.24,0,0,0-.4-.22,1.09,1.09,0,0,0-.9,0,2.53,2.53,0,0,0-.23.12,1.35,1.35,0,0,1-.74.09,3.85,3.85,0,0,1-.49-.07,1.29,1.29,0,0,0-1.18.26c-.1.11-.16.27-.29.36s-.55.09-.83,0-.65,0-.76.23l-.06.25a.76.76,0,0,1-.5.47,5.69,5.69,0,0,1-.7.12,2.52,2.52,0,0,0-1.05.45,1,1,0,0,0-.34.37,0,0,0,0,0,0,0,.46.46,0,0,0,0,.2.49.49,0,0,0,0,.12.29.29,0,0,0,0,.09.75.75,0,0,1,.07.18s0,0,0,.07a.52.52,0,0,1-.09.29.22.22,0,0,1-.05.08,2,2,0,0,1-.23.27,1.11,1.11,0,0,0-.17.27h0a.59.59,0,0,0,0,.23.38.38,0,0,0,0,.18.18.18,0,0,0,.05.07,1,1,0,0,0,.27.19,1,1,0,0,1,.31.82,6.72,6.72,0,0,1-.07,1.35v0c0,.17-.09.5-.11.82h0v0h0v.11a1,1,0,0,0,.16.65h0a.45.45,0,0,0,.14.1.42.42,0,0,0,.33-.05c-.05.13-.11.26-.17.39h0a.25.25,0,0,1,0,.07l-.21.44a2.35,2.35,0,0,0-1.23.13s-.18,1.37-.77,1.52a16.16,16.16,0,0,0-2.76,2l-3.13,3.14-.07.08-.21.29a26.87,26.87,0,0,0-2,3.37A9.9,9.9,0,0,0,8,33.14a24.59,24.59,0,0,0-.59,3.65h0c0,.36-.13,3.7-.07,5a2.28,2.28,0,0,0,0,.45,4.73,4.73,0,0,1,0,.65c0,.43,0,1,0,1.64,0,1.7-.16,3.7-.16,3.7A17.89,17.89,0,0,0,8,50.13c0,.08.09.13.12.12s.68,1.22.68,1.22.2,0,.54,0h.1l.09.17.08.18a1.3,1.3,0,0,1,.08.17c.35.69.73,1.35,1,1.42a5.52,5.52,0,0,1,2.11,1.22c.11.33,2.12.66,3,.66h.42v.16a.86.86,0,0,0,.84.78h.68l0,.15v0l0,.14-.18,1.35h.07l1.77,0h.19v-.06l.26-.07.1,0a24.09,24.09,0,0,1,4.82-1,10.81,10.81,0,0,1,1.61,0l.26,0A27.34,27.34,0,0,1,31.61,58h2.7l0-1.39v-.18h.56a.84.84,0,0,0,.66-.29h0a.91.91,0,0,0,.19-.38,1.1,1.1,0,0,0,0-.18v-.13a.89.89,0,0,1-.06,1.1h0a1.74,1.74,0,0,1-.36.31,2.77,2.77,0,0,0-.87.78h0c-.11.19-.05.26-.05.26h4.93c1.2-.51,2.36-1.17,3.56-1.69h0l.08,0A4.34,4.34,0,0,0,42.49,52.44Zm-20-15,0-.12.1-.24,0,0,1.77,2.6.15.18-.26,0-.78.06a7.75,7.75,0,0,1-1.13-.21l-.43-.2a2.52,2.52,0,0,0-.08-.54h0l0-.06.51-1.31Zm8,8.19c.73.52,1.63,1.11,2.54,1.67h-.42l-2.19.05c-.82-.18-2-.45-2.33-.57-.15-.06-.81-.24-1.64-.46l-1.87-.48-1.28-.33a.14.14,0,0,0-.05-.1A2.48,2.48,0,0,1,23,44.8a3.28,3.28,0,0,1-.18-.61s-.76-.09-.89-.34c0-.07,0-.16.09-.26a.88.88,0,0,0,.18-.25h0a.74.74,0,0,0,0-.14,1.09,1.09,0,0,0,0-.44h0a1.28,1.28,0,0,0-.07-.28,5.55,5.55,0,0,1,.95.31,4.18,4.18,0,0,0,1.56.21c.4,0,.77,0,1,0h0l.21,0s.26.05.62.09l.8.08h.34l.2.19.05.06c.57.55,1.15,1.08,1.7,1.55.33.27.65.52.95.73Z" transform="translate(0.05 0)"/><polygon class="cls-16" points="29.49 47.62 37.12 47.44 39.78 48.91 40.2 52.38 33.19 50.36 29.49 47.62"/><polygon class="cls-6" points="29.49 47.62 37.12 47.44 39.78 48.91 40.2 52.38 33.19 50.36 29.49 47.62"/><path class="cls-17" d="M25,42.29a7.13,7.13,0,0,1,.8.89s2.69.47,3.34-.12-1.27-2.57-1.27-2.57l-1.72.09-1.39.83Z" transform="translate(0.05 0)"/><path class="cls-18" d="M21.08,39.48l1.3.59a7.82,7.82,0,0,0,1.12.21c.3,0,1.54-.15,1.54-.15l1.12.45s-1,1.89-.35,2.6A8,8,0,0,1,23,43a7.14,7.14,0,0,0-1.8-.47Z" transform="translate(0.05 0)"/><path class="cls-6" d="M21.26,39.51l1.3.59a7.82,7.82,0,0,0,1.12.21c.3,0,1.54-.15,1.54-.15l1.12.45s-1,1.89-.35,2.6a8,8,0,0,1-2.81-.15,7.16,7.16,0,0,0-1.81-.47Z" transform="translate(0.05 0)"/><path class="cls-17" d="M24.07,25.5s-8.57-1.95-7-2.22c1-.17,1.88-2.38,2.4-4,.29-.89.47-1.59.47-1.59S24.83,20,23.71,20.8c-.43.3-.48,1.06-.37,1.88A14,14,0,0,0,24.07,25.5Z" transform="translate(0.05 0)"/><path class="cls-7" d="M32.43,56.07v.15h0l0,.38v.18l0,1.26v.13h-.61v-.09l-.12,0a25.69,25.69,0,0,0-5.11-1.29l-.25,0a11,11,0,0,0-1.62,0,24.23,24.23,0,0,0-4.82,1l-.1,0-.26.08,0-1.29v-.41H20l4.59,0,1.87,0Z" transform="translate(0.05 0)"/><path class="cls-9" d="M20.1,55.74l-.06.42h0l0,.24,0,.18h0l-.17,1.17-.1,0-.26.08v0h-.19l-.36.11H17.47l0-.13.18-1.35h0l0-.18,0-.35L20,55.76Z" transform="translate(0.05 0)"/><path class="cls-7" d="M20,55.74h0l-.06.41,0,.24,0,.18-.18,1.21-.26.08v.05h-.19L18.9,58l-.08,0h0l-1.44,0,.2-1.49,0-.18,0-.15h0l0-.2Z" transform="translate(0.05 0)"/><polygon class="cls-9" points="34.23 56.31 34.22 56.64 34.22 56.81 34.22 56.81 34.2 58.06 34.2 58.08 32.39 58.15 32.06 58.16 31.87 58.17 31.78 58.18 31.77 58.08 31.77 58.04 31.73 56.77 31.73 56.77 31.73 56.59 31.71 56.19 31.8 56.19 32.39 56.22 32.47 56.23 34.23 56.31"/><polygon class="cls-7" points="34.31 56.31 34.31 56.64 34.3 56.81 34.27 58.06 34.27 58.2 32.39 58.18 32.11 58.18 32.11 58.18 31.87 58.18 31.87 58.17 31.86 58.1 31.86 58.05 31.82 56.77 31.81 56.6 31.8 56.19 31.8 56.19 32.47 56.22 34.31 56.31"/><path class="cls-10" d="M20,55.74h0l-.06.41,0,.24,0,.18-.18,1.21-.26.08v.05h-.19L18.9,58l-.08,0h0l-1.44,0,.2-1.49,0-.18,0-.15h0l0-.2Z" transform="translate(0.05 0)"/><polygon class="cls-10" points="34.31 56.31 34.31 56.64 34.3 56.81 34.27 58.06 34.27 58.2 32.39 58.18 32.11 58.18 32.11 58.18 31.87 58.18 31.87 58.17 31.86 58.1 31.86 58.05 31.82 56.77 31.81 56.6 31.8 56.19 31.8 56.19 32.47 56.22 34.31 56.31"/><path class="cls-9" d="M23.71,20.8c-.43.3-.48,1.06-.37,1.88a4.69,4.69,0,0,1-3.91-3.37c.29-.9.47-1.59.47-1.59S24.83,20,23.71,20.8Z" transform="translate(0.05 0)"/><path class="cls-17" d="M28.65,17.84a4.71,4.71,0,1,1-.2-1.35A4.74,4.74,0,0,1,28.65,17.84Z" transform="translate(0.05 0)"/><path class="cls-9" d="M28.45,16.49a5,5,0,0,0-1.13-.23.4.4,0,0,0-.26.06c-.11.1-.09.27-.1.41a.86.86,0,0,1-.42.65c-.31.17-.7.14-1,.36A1.19,1.19,0,0,0,25.42,19a1.75,1.75,0,0,1,.08.51.74.74,0,0,1-.78.7.76.76,0,0,1-.54-.28,2.31,2.31,0,0,1-.27-1.11,2.05,2.05,0,0,0-.58-1.13,1.09,1.09,0,0,0-.51-.31.6.6,0,0,0-.57.14c-.19.21-.15.52-.18.8a1.75,1.75,0,0,1-.73,1.28,5.47,5.47,0,0,1-1.34.55l-.13.07A4.7,4.7,0,1,1,28,15.51,5,5,0,0,1,28.45,16.49Z" transform="translate(0.05 0)"/><path class="cls-19" d="M19.91,20a5.47,5.47,0,0,0,1.34-.55A1.75,1.75,0,0,0,22,18.2a1.34,1.34,0,0,1,.19-.8.58.58,0,0,1,.56-.14,1,1,0,0,1,.51.31,2.07,2.07,0,0,1,.59,1.13,2.28,2.28,0,0,0,.27,1.11.74.74,0,0,0,1,.12.76.76,0,0,0,.28-.54,1.52,1.52,0,0,0-.09-.51,1.22,1.22,0,0,1,.17-1.23c.26-.22.65-.19.95-.36a.81.81,0,0,0,.42-.65c0-.14,0-.31.11-.4a.37.37,0,0,1,.25-.07c.64,0,1.24.36,1.88.32a.35.35,0,0,0,.22-.06.46.46,0,0,0,.13-.2A1.46,1.46,0,0,0,29.57,15c-.23-.49-.92-.69-1.06-1.21-.07-.26,0-.57-.21-.74a.81.81,0,0,0-.3-.13,5.09,5.09,0,0,1-1.17-.73,1.37,1.37,0,0,0-1.29-.26,2.36,2.36,0,0,0-.23.13,2.14,2.14,0,0,1-1.23,0,1.26,1.26,0,0,0-1.17.25,2.63,2.63,0,0,1-.29.37,1,1,0,0,1-.83,0c-.28-.06-.65,0-.76.23a1.22,1.22,0,0,0-.06.26.73.73,0,0,1-.51.45,4,4,0,0,1-.69.13,2.7,2.7,0,0,0-1.05.44c-.21.15-.43.4-.37.66,0,.09.07.17.09.26.06.27-.17.51-.35.72s-.34.53-.15.73a1,1,0,0,0,.27.19,1.08,1.08,0,0,1,.31.82A6.79,6.79,0,0,1,18.45,19c-.06.38-.33,1.47.17,1.7C18.92,20.81,19.61,20.14,19.91,20Z" transform="translate(0.05 0)"/><path class="cls-20" d="M23.15,40.7s-1.1.06-1,.47S23.15,40.7,23.15,40.7Z" transform="translate(0.05 0)"/><path class="cls-16" d="M42.94,56.28h0c-1.2.51-2.36,1.17-3.55,1.69l-.33.13a9.75,9.75,0,0,1-2.32.65,8.88,8.88,0,0,1-2.47-.07,2.14,2.14,0,0,1,.24-1h0a3.73,3.73,0,0,1,.77-.63,1.52,1.52,0,0,0,.46-.45h0a.84.84,0,0,0,0-.8l-.09-.15a1.3,1.3,0,0,0-.18-.23H21l-4.85,0h-.47c-.86,0-2.87-.32-3-.65a5.51,5.51,0,0,0-2.1-1.21c-.26-.07-.69-.84-1.05-1.58-.06-.12-.12-.23-.17-.35s0-.11-.08-.17h0c-.11-.23-.2-.44-.27-.6l0-.09,0,0s0,0,0,0h0l0,0-.05-.11,13.22-5.06,1,.27.16,0,1.34.34,1.87.49c.79.21,1.41.37,1.56.43.3.11,1.52.39,2.33.57h0l.77.17,2.41.48.27,0,.35.07.21.05h0l.74.15.54.11,1.66.35.41.09.16,0,.16,0,1.43.35a1.75,1.75,0,0,1,.32.12,4.8,4.8,0,0,1,1.76,1.62,8.9,8.9,0,0,1,.78,1.33A4.32,4.32,0,0,1,42.94,56.28Z" transform="translate(0.05 0)"/><path class="cls-9" d="M20.55,49s-.56,2.48-2.31,3.37S20.55,49,20.55,49Z" transform="translate(0.05 0)"/><path class="cls-9" d="M24.27,50.48s-1.89,1.1-1.62,1.89Z" transform="translate(0.05 0)"/><path class="cls-9" d="M41.33,53.62s-.53,2.24-1.68,2.27Z" transform="translate(0.05 0)"/><polygon class="cls-9" points="34.31 56.31 34.31 56.81 32.45 56.78 31.82 56.77 19.95 56.58 19.52 56.57 17.63 56.54 17.7 56.01 20.06 55.74 20 56.16 32.48 56.07 32.47 56.22 34.31 56.31"/><path class="cls-8" d="M34.82,56.65l-17.89-.3a.85.85,0,0,1-.84-.83v-.4h19.6v.68a.85.85,0,0,1-.85.85Z" transform="translate(0.05 0)"/><path class="cls-9" d="M22.06,46.67a6.06,6.06,0,0,0-1,1A9.2,9.2,0,0,1,19,48.89C16.7,51.23,11.44,51.83,9.52,52c0-.12-.11-.24-.16-.35-.29-.61-.49-1.12-.49-1.12l13.21-5,1.05.26a1.53,1.53,0,0,0,.19.3.14.14,0,0,1,.05.1C23.48,46.52,22.06,46.67,22.06,46.67Z" transform="translate(0.05 0)"/><path class="cls-18" d="M23.29,45.76c.1.4-1.32.55-1.32.55a7.05,7.05,0,0,0-1,1,9,9,0,0,1-2.1,1.24c-2.28,2.38-7.65,3-9.5,3.1-.4,0-.64,0-.64,0s-.5-1.24-.68-1.21a9.6,9.6,0,0,1-.88-2s.29-5.32.14-5.94.06-5,0-5.41a25.44,25.44,0,0,1,1-5.15,29.73,29.73,0,0,1,2.24-3.63l3.2-3.19a17,17,0,0,1,2.75-2c.59-.14.77-1.5.77-1.5,1.42-.59,3.1.65,3.1.65,1.48,0,1.33.23,1.33.23l.86.18,0,.24,1.07,11.58-1.26,3.2-.61,1.54a2.38,2.38,0,0,1-.05,1.56A2.4,2.4,0,0,0,22,42.65s.36.74-.12,1.18.8.59.8.59a3.4,3.4,0,0,0,.53,1.24A.21.21,0,0,1,23.29,45.76Z" transform="translate(0.05 0)"/><path class="cls-9" d="M17,42.38s-.59,1.13.47,1.3a28.53,28.53,0,0,0,4.17-.12C22,43.56,17,42.38,17,42.38Z" transform="translate(0.05 0)"/><path class="cls-9" d="M16.91,38.63a25.52,25.52,0,0,0,4.44,3.43Z" transform="translate(0.05 0)"/><path class="cls-9" d="M19.19,36.73a25.17,25.17,0,0,0,2.13,3.32c.52.44.08-1.6.08-1.6Z" transform="translate(0.05 0)"/><path class="cls-9" d="M14.69,28.58s4,2.63,3.88,4.49S14.69,28.58,14.69,28.58Z" transform="translate(0.05 0)"/><path class="cls-9" d="M9.9,37.06s-1,8.19,7.19,8C17.09,45.1,10.38,42.62,9.9,37.06Z" transform="translate(0.05 0)"/><path class="cls-17" d="M41.66,51.28A25,25,0,0,1,37.13,50l0-.09.54-2.6.68,0,2.13.09C41.3,47.53,42.84,51.31,41.66,51.28Z" transform="translate(0.05 0)"/><path class="cls-9" d="M22.64,23l1.07,11.58-1.26,3.2L20,34.25a33.23,33.23,0,0,1-1.8-4.88s-.36-3.57,2-5.47A3.38,3.38,0,0,1,22.64,23Z" transform="translate(0.05 0)"/><path class="cls-9" d="M37.75,49.12a2.91,2.91,0,0,1-.88,1.09s-1.55-.89-3.3-2C34.88,48.51,36.49,48.84,37.75,49.12Z" transform="translate(0.05 0)"/><path class="cls-9" d="M37.31,50,37.15,50l.54-2.6.68,0A2.71,2.71,0,0,1,37.31,50Z" transform="translate(0.05 0)"/><path class="cls-18" d="M24,23.34s-1-1.51-3.4.39-2,5.47-2,5.47a32.78,32.78,0,0,0,1.8,4.87c.59.83,4.08,6,4.08,6a49,49,0,0,0,6.06,5.85c2.4,1.69,6.68,4.17,6.68,4.17a2.71,2.71,0,0,0,1-2.78,2.89,2.89,0,0,1-1.24-.65l-.92-1s-.71-.3-.71-.62S34,43.63,34,43.63s-.09-.45-.41-.54-.8-1.18-.8-1.18-1.1-1.27-1.13-1.68-.5-.44-.5-.44a5.26,5.26,0,0,1-.42-1c0-.21-.62-.62-.62-.62l-1-1.09a1.21,1.21,0,0,0-.68-1.36c-.95-.59-1.07-2.28-1.07-2.28l-.91-2a.51.51,0,0,0,.23-.62,2.13,2.13,0,0,0-.41-.77s.36-.2.06-.68A4.46,4.46,0,0,1,26,27.76l-.71-2S25.16,23.87,24,23.34Z" transform="translate(0.05 0)"/><path class="cls-9" d="M26.43,36.59s3.08-.8,2.16-.15A2.51,2.51,0,0,1,26.43,36.59Z" transform="translate(0.05 0)"/><path class="cls-9" d="M26,39.93s2.33-.42,1.8.12S26,39.93,26,39.93Z" transform="translate(0.05 0)"/><path class="cls-9" d="M21.4,26.09s3.14.83,3.88,2.57Z" transform="translate(0.05 0)"/><g class="cls-14"><path d="M18.49,17.15a1.06,1.06,0,0,0-.31-.81,1.85,1.85,0,0,1-.27-.19h0a.39.39,0,0,0,0,.43,1.51,1.51,0,0,0,.26.18.79.79,0,0,1,.29.55Z" transform="translate(0.05 0)"/><path d="M18.35,14.85a.49.49,0,0,0,0,.11.46.46,0,0,0,0-.26.49.49,0,0,0,0-.11A.46.46,0,0,0,18.35,14.85Z" transform="translate(0.05 0)"/><path d="M29.62,15.08a2.23,2.23,0,0,1-.2.68.39.39,0,0,1-.13.2.4.4,0,0,1-.22.06c-.63,0-1.24-.31-1.87-.32a.4.4,0,0,0-.26.06c-.11.1-.09.27-.1.41a.85.85,0,0,1-.42.65c-.3.17-.7.14-1,.36a1,1,0,0,0-.22,1,.77.77,0,0,1,.25-.57c.26-.22.66-.19,1-.36a.8.8,0,0,0,.42-.65c0-.14,0-.31.11-.4a.37.37,0,0,1,.25-.07c.64,0,1.24.36,1.87.33a.48.48,0,0,0,.23-.07.5.5,0,0,0,.13-.19A1.78,1.78,0,0,0,29.62,15.08Z" transform="translate(0.05 0)"/><path d="M24.87,19.58a.74.74,0,0,1-.8-.25,2.28,2.28,0,0,1-.27-1.11,2.11,2.11,0,0,0-.59-1.12,1.14,1.14,0,0,0-.51-.32.58.58,0,0,0-.56.15c-.19.2-.16.51-.18.79A1.77,1.77,0,0,1,21.22,19a5.5,5.5,0,0,1-1.34.56c-.3.11-1,.78-1.29.65a.52.52,0,0,1-.27-.39c0,.35.05.69.3.8s1-.54,1.29-.65a5.47,5.47,0,0,0,1.34-.55A1.75,1.75,0,0,0,22,18.14a1.34,1.34,0,0,1,.19-.8.58.58,0,0,1,.56-.14,1,1,0,0,1,.51.31,2.14,2.14,0,0,1,.59,1.13,2.24,2.24,0,0,0,.27,1.1.72.72,0,0,0,1,.13.77.77,0,0,0,.29-.54,1.32,1.32,0,0,0,0-.34A.75.75,0,0,1,24.87,19.58Z" transform="translate(0.05 0)"/></g><path class="cls-21" d="M4.82,37.05a.78.78,0,0,0-.11.2l0,0h0a.49.49,0,0,0-.17,0v-.07c0-.24,0-.58-.25-.44s-.07.37.08.52l0,0c-.13.1-.15.31-.17.54a1.4,1.4,0,0,1-.34.61l0,0a.44.44,0,0,0-.37-.1s0,0,0-.06c-.1-.37-.32-1-.59-1.15l0-.05c.12-.15.25-.38.06-.43s-.21.19-.2.38v.07a.28.28,0,0,0-.2.1l0,0c-.15-.18-.44-.48-.52-.25s.16.47.34.63h0c-.12.49.4.88.68,1l0,0A4.26,4.26,0,0,0,2.42,40l1.08.19s.71-.61.62-1.19h0a1.1,1.1,0,0,0,.77-1.36h0a.81.81,0,0,0,.33-.25A.26.26,0,0,0,4.82,37.05Z" transform="translate(0.05 0)"/><path class="cls-9" d="M4.82,37.05a.78.78,0,0,0-.11.2l0,0h0a.49.49,0,0,0-.17,0v-.07c0-.24,0-.58-.25-.44s-.07.37.08.52l0,0c-.13.1-.15.31-.17.54a1.4,1.4,0,0,1-.34.61l0,0a.44.44,0,0,0-.37-.1s0,0,0-.06c-.1-.37-.32-1-.59-1.15l0-.05c.12-.15.25-.38.06-.43s-.21.19-.2.38v.07a.28.28,0,0,0-.2.1l0,0c-.15-.18-.44-.48-.52-.25s.16.47.34.63h0c-.12.49.4.88.68,1l0,0A4.26,4.26,0,0,0,2.42,40l1.08.19s.71-.61.62-1.19h0a1.1,1.1,0,0,0,.77-1.36h0a.81.81,0,0,0,.33-.25A.26.26,0,0,0,4.82,37.05Z" transform="translate(0.05 0)"/><path class="cls-21" d="M2.67,37.36l-.13.37-.16-.13C2.2,37.45,2,37.18,2,37s.38.07.53.25Z" transform="translate(0.05 0)"/><path class="cls-21" d="M2.93,37.15l-.12.14a1.11,1.11,0,0,1,0-.19c0-.19,0-.44.2-.38S3.05,37,2.93,37.15Z" transform="translate(0.05 0)"/><path class="cls-21" d="M4.56,37.21c0,.12,0,.22,0,.22l-.16-.14c-.15-.15-.3-.38-.08-.52S4.57,37,4.56,37.21Z" transform="translate(0.05 0)"/><path class="cls-21" d="M5.3,37.37a.75.75,0,0,1-.33.25l-.11,0-.15-.21a1.18,1.18,0,0,1,.07-.2.75.75,0,0,1,.1-.2A.26.26,0,0,1,5.3,37.37Z" transform="translate(0.05 0)"/><path class="cls-9" d="M2.56,37.23l.11.13-.13.37-.16-.13a.71.71,0,0,1,.14-.32Z" transform="translate(0.05 0)"/><path class="cls-9" d="M2.93,37.15l-.12.14a1.11,1.11,0,0,1,0-.19A.24.24,0,0,1,2.93,37.15Z" transform="translate(0.05 0)"/><path class="cls-21" d="M3.55,38.62l-.31.14-.17-.1c-.33-.2-1-.71-.55-1.32s.82.48,1,1A2.1,2.1,0,0,1,3.55,38.62Z" transform="translate(0.05 0)"/><path class="cls-9" d="M4.39,37.29a.23.23,0,0,1,.17-.08c0,.12,0,.22,0,.22Z" transform="translate(0.05 0)"/><path class="cls-9" d="M5,37.62l-.12,0-.15-.21a1.18,1.18,0,0,1,.07-.2A.56.56,0,0,1,5,37.62Z" transform="translate(0.05 0)"/><path class="cls-21" d="M4.2,39H4.14c-1,.16-.34-.41-.34-.41l.11-.11a1.14,1.14,0,0,0,.33-.61c0-.34.08-.66.48-.57S5.19,38.78,4.2,39Z" transform="translate(0.05 0)"/><rect class="cls-22" x="2.21" y="41.6" width="2.01" height="0.53"/><rect class="cls-22" x="1.89" y="39.88" width="2.63" height="1.85"/><rect class="cls-9" x="2.21" y="41.6" width="2.01" height="0.53"/><rect class="cls-9" x="1.89" y="39.88" width="2.63" height="1.85"/><rect class="cls-22" x="2.35" y="41.6" width="2.01" height="0.53"/><path class="cls-9" d="M3.49,38.35c0,.16.06.27.06.27l-.31.14-.17-.1A.82.82,0,0,1,3.49,38.35Z" transform="translate(0.05 0)"/><path class="cls-9" d="M4.2,39H4.14c-1,.16-.34-.41-.34-.41l.11-.11A.71.71,0,0,1,4.2,39Z" transform="translate(0.05 0)"/><path class="cls-21" d="M2.48,40s.59-2.11,1.42-1.46-.34,1.65-.34,1.65Z" transform="translate(0.05 0)"/><circle class="cls-9" cx="2.83" cy="37.68" r="0.07"/><circle class="cls-9" cx="2.83" cy="37.98" r="0.07"/><circle class="cls-9" cx="4.74" cy="37.74" r="0.07"/><circle class="cls-9" cx="3.2" cy="39.32" r="0.07"/><circle class="cls-9" cx="4.6" cy="38.25" r="0.07"/><circle class="cls-9" cx="3.92" cy="38.93" r="0.07"/><circle class="cls-9" cx="3.06" cy="37.81" r="0.07"/><circle class="cls-9" cx="4.56" cy="37.93" r="0.07"/><circle class="cls-9" cx="4.33" cy="38.45" r="0.07"/><circle class="cls-9" cx="3.64" cy="39.27" r="0.07"/><circle class="cls-9" cx="3.5" cy="38.94" r="0.07"/><circle class="cls-9" cx="3.16" cy="38.21" r="0.07"/><rect class="cls-9" x="2.35" y="41.6" width="2.01" height="0.19"/><rect class="cls-22" x="2.03" y="39.88" width="2.63" height="1.85"/><circle class="cls-9" cx="3.73" cy="39.56" r="0.07"/><circle class="cls-9" cx="3.33" cy="39.65" r="0.07"/><path class="cls-21" d="M81.35,30.15s.66-2,2.4-1.25c0,0-.81,1.77-2.32,1.57Z" transform="translate(0.05 0)"/><path class="cls-21" d="M81.07,28.17s.74-2,2.47-1.1c0,0-1,1.82-2.38,1.4Z" transform="translate(0.05 0)"/><path class="cls-21" d="M81,26.36s1-1.94,2.38-1.67c0,0-1,2-2.33,2.1Z" transform="translate(0.05 0)"/><path class="cls-21" d="M81,24.61s1.1-2.35,2.22-2A4.94,4.94,0,0,1,81,25Z" transform="translate(0.05 0)"/><path class="cls-21" d="M81.23,22.54s1-1.94,2.14-1.85c0,0-.77,1.94-2.2,2.38Z" transform="translate(0.05 0)"/><path class="cls-21" d="M81.38,20.61s1.17-1.92,1.92-1.86c0,0-.67,2-1.89,2.2Z" transform="translate(0.05 0)"/><path class="cls-21" d="M81.56,18.81s.86-2.14,1.64-2.21A3.82,3.82,0,0,1,81.61,19Z" transform="translate(0.05 0)"/><path class="cls-21" d="M81.64,16.44s.82-1.69,1.47-1.86c0,0-.45,2.07-1.4,2.32Z" transform="translate(0.05 0)"/><path class="cls-21" d="M81.64,14.88,82,11.73s.77,2.54-.38,3.71Z" transform="translate(0.05 0)"/><path class="cls-21" d="M81.24,11.63a16.88,16.88,0,0,0-.65-2.56,4.71,4.71,0,0,1,.93,3.61Z" transform="translate(0.05 0)"/><path class="cls-21" d="M81.26,31.62c-.42.29-.82.59-1.22.9l-.24.19a2.91,2.91,0,0,1-.74-.24A1.85,1.85,0,0,1,81.26,31.62Z" transform="translate(0.05 0)"/><path class="cls-21" d="M81.36,30.2s-1.27-1.65-2.67-.4c0,0,1.34,1.41,2.69.72Z" transform="translate(0.05 0)"/><path class="cls-21" d="M81.17,28.14s-1.28-1.69-2.69-.35c0,0,1.5,1.45,2.69.66Z" transform="translate(0.05 0)"/><path class="cls-21" d="M81.16,26.33s-.88-2-2.29-1.8c0,0,.9,2.11,2.21,2.22Z" transform="translate(0.05 0)"/><path class="cls-21" d="M81.07,24.61s-.81-2.47-2-2.24A4.91,4.91,0,0,0,81,25Z" transform="translate(0.05 0)"/><path class="cls-21" d="M81.33,22.43s-.92-2-2.07-1.93c0,0,.69,2,2.1,2.47Z" transform="translate(0.05 0)"/><path class="cls-21" d="M81.52,20.59s-.62-2.16-1.37-2.29c0,0,.14,2.07,1.25,2.62Z" transform="translate(0.05 0)"/><path class="cls-21" d="M81.61,18.78s-.72-2.2-1.49-2.33A3.85,3.85,0,0,0,81.54,19Z" transform="translate(0.05 0)"/><path class="cls-21" d="M81.78,16.6s-.5-1.81-1.12-2.1c0,0,.07,2.12,1,2.53Z" transform="translate(0.05 0)"/><path class="cls-21" d="M81.55,14.81l-1.31-2.88s0,2.65,1.49,3.41Z" transform="translate(0.05 0)"/><path class="cls-21" d="M80.81,11.79A17.07,17.07,0,0,1,79,9.87a4.72,4.72,0,0,0,2.55,2.71Z" transform="translate(0.05 0)"/><path class="cls-21" d="M80.79,11.15s-2-2.56-2.55-2.64A3.76,3.76,0,0,1,80.85,11Z" transform="translate(0.05 0)"/><path class="cls-23" d="M81.71,16.92h-.09c.09-3.44-.23-5.53-.9-5.88l0-.08C81.47,11.33,81.8,13.4,81.71,16.92Z" transform="translate(0.05 0)"/><path class="cls-23" d="M81.11,25.08H81c0-.32,0-.64.08-1,.31-2.81.52-5.4.57-7.36l.08-.08c0,2-.21,4.64-.52,7.46C81.16,24.44,81.13,24.76,81.11,25.08Z" transform="translate(0.05 0)"/><path class="cls-23" d="M81.47,30.47c.06.3.12.59.19.87l-.16.12c-.07-.3-.14-.6-.2-.9L81.21,30q-.1-.74-.18-1.5c0-.09,0-.18,0-.27s0-.22,0-.33v-.05c0-.38,0-.77,0-1.15v-.8c0-.29,0-.57,0-.86V25s0-.08,0-.12v0l0,0h0l.06,0h0V25c0,.4,0,.8,0,1.19v.64c0,.37,0,.73,0,1.09a.81.81,0,0,0,0,.16v.06s0,.1,0,.16v.22c.06.54.13,1.06.22,1.56C81.41,30.19,81.44,30.33,81.47,30.47Z" transform="translate(0.05 0)"/><path class="cls-21" d="M89.64,26.34l-.19.13c-.55.37-1.11.72-1.67,1.07v.17h0v-.28h0v-.05l.06-.09A1.93,1.93,0,0,1,89.64,26.34Z" transform="translate(0.05 0)"/><path class="cls-21" d="M87.87,25.38s1.12-1.78,2.64-.57c0,0-1.37,1.57-2.62.89Z" transform="translate(0.05 0)"/><path class="cls-21" d="M88.16,23.59s1.36-1.69,2.68-1.14c0,0-1.41,1.8-2.71,1.57Z" transform="translate(0.05 0)"/><path class="cls-21" d="M88.56,21.89s1.56-2.07,2.59-1.48a5,5,0,0,1-2.68,1.86Z" transform="translate(0.05 0)"/><path class="cls-21" d="M89.17,19.9s1.38-1.7,2.48-1.37A4.42,4.42,0,0,1,89,20.41Z" transform="translate(0.05 0)"/><path class="cls-21" d="M89.72,18S91.26,16.4,92,16.63c0,0-1.06,1.78-2.3,1.76Z" transform="translate(0.05 0)"/><path class="cls-21" d="M90.27,16.33s1.28-1.93,2.06-1.83c0,0-.75,1.68-2,2Z" transform="translate(0.05 0)"/><path class="cls-21" d="M90.83,14S92,12.54,92.65,12.5c0,0-.86,1.93-1.84,2Z" transform="translate(0.05 0)"/><path class="cls-21" d="M91.15,12.49l1-3S92.39,12.13,91,13Z" transform="translate(0.05 0)"/><path class="cls-21" d="M91.43,9.23a17.5,17.5,0,0,0-.1-2.64,4.72,4.72,0,0,1,.16,3.72Z" transform="translate(0.05 0)"/><path class="cls-21" d="M85,29.18a2.27,2.27,0,0,1,1.06-.6l-1,.62Z" transform="translate(0.05 0)"/><path class="cls-21" d="M87.73,27.42h0l0,.17,0,.16H87.6l-.24,0a2.74,2.74,0,0,1-2.17-1.31,1.71,1.71,0,0,1,2.42.74C87.69,27.34,87.72,27.41,87.73,27.42Z" transform="translate(0.05 0)"/><path class="cls-21" d="M88,25.37s-.9-1.91-2.55-.89c0,0,1.16,1.73,2.49,1.2Z" transform="translate(0.05 0)"/><path class="cls-21" d="M88.33,23.59s-.45-2.12-1.88-2.22c0,0,.45,2.24,1.71,2.62Z" transform="translate(0.05 0)"/><path class="cls-21" d="M88.6,21.89s-.28-2.58-1.46-2.59a4.86,4.86,0,0,0,1.36,3Z" transform="translate(0.05 0)"/><path class="cls-21" d="M89.29,19.82s-.49-2.13-1.63-2.32c0,0,.28,2.08,1.56,2.85Z" transform="translate(0.05 0)"/><path class="cls-21" d="M89.86,18.05s-.16-2.24-.87-2.52c0,0-.29,2,.69,2.82Z" transform="translate(0.05 0)"/><path class="cls-21" d="M90.32,16.3s-.25-2.3-1-2.58a3.86,3.86,0,0,0,.88,2.74Z" transform="translate(0.05 0)"/><path class="cls-21" d="M90.94,14.2s-.13-1.88-.66-2.28c0,0-.37,2.08.42,2.67Z" transform="translate(0.05 0)"/><path class="cls-21" d="M91.09,12.4l-.7-3.09s-.51,2.6.76,3.65Z" transform="translate(0.05 0)"/><path class="cls-21" d="M91,9.29A17.29,17.29,0,0,1,89.59,7a4.74,4.74,0,0,0,1.94,3.18Z" transform="translate(0.05 0)"/><path class="cls-21" d="M91.09,8.66s-1.39-2.9-2-3.11a3.81,3.81,0,0,1,2,3Z" transform="translate(0.05 0)"/><path class="cls-23" d="M90.8,14.5l-.08,0c.79-3.35.9-5.46.32-6l0-.06C91.72,9,91.61,11.07,90.8,14.5Z" transform="translate(0.05 0)"/><path class="cls-23" d="M88.53,22.36l-.12,0c.08-.31.18-.62.28-.93.88-2.68,1.62-5.18,2.07-7.09l.1-.05c-.45,1.91-1.16,4.49-2,7.18C88.71,21.75,88.62,22.06,88.53,22.36Z" transform="translate(0.05 0)"/><path class="cls-23" d="M88.58,22.19s0,0,0,.06c-.11.38-.21.77-.29,1.15,0,0,0,.05,0,.08s-.07.34-.11.51v0c-.08.42-.15.83-.2,1.24,0,0,0,0,0,.06h0c0,.11,0,.23,0,.35v0c-.06.54-.09,1.06-.11,1.58a2.35,2.35,0,0,1,0,.26v.17h0v-.14l0,0,0,.16-.08,0v-.11c0-.14,0-.28,0-.42,0-.5.06-1,.13-1.51,0-.2,0-.4.07-.59h0c.06-.4.13-.8.21-1.19s.11-.52.17-.78h0q.09-.42.21-.84l0-.1h0l0-.13h0l0,0,0,0Z" transform="translate(0.05 0)"/></svg>