<?xml version="1.0" encoding="UTF-8" standalone="no"?>
<!DOCTYPE svg PUBLIC "-//W3C//DTD SVG 1.1//EN" "http://www.w3.org/Graphics/SVG/1.1/DTD/svg11.dtd">
<svg width="100%" height="100%" viewBox="0 0 173 103" version="1.1" xmlns="http://www.w3.org/2000/svg" xmlns:xlink="http://www.w3.org/1999/xlink" xml:space="preserve" xmlns:serif="http://www.serif.com/" style="fill-rule:evenodd;clip-rule:evenodd;stroke-linejoin:round;stroke-miterlimit:1.41421;">
    <g>
        <g transform="matrix(1,0,0,1,44.8119,-0.017)">
            <path d="M73.426,6.338L73.426,1.103L71.55,1.103L71.55,0.017L76.586,0.017L76.586,1.103L74.71,1.103L74.71,6.338L73.426,6.338ZM77.376,6.338L77.376,0.017L79.302,0.017L80.389,4.313L81.524,0.017L83.45,0.017L83.45,6.338L82.265,6.338L82.265,1.35L81.03,6.338L79.796,6.338L78.561,1.35L78.561,6.338L77.376,6.338Z" style="fill:rgb(254,254,254);fill-rule:nonzero;"/>
        </g>
        <g transform="matrix(1,0,0,1,44.8119,-0.017)">
            <path d="M0,87.763L67.797,87.763L67.797,96.503L0,96.503L0,87.763ZM43.206,4.807L33.923,4.807L24.64,4.807L33.923,22.04L43.206,4.807ZM61.476,4.807L33.923,56.605L6.32,4.807L18.27,4.807L33.923,33.842L49.576,4.807L61.476,4.807ZM0,4.807L0,61.099L30.319,61.099L0,4.807ZM67.797,4.807L67.797,61.099L37.528,61.099L67.797,4.807Z" style="fill:rgb(202,158,100);"/>
            <path d="M6.024,85.195L0.494,65.691L4.395,65.691L6.716,74.53C6.913,75.418 7.111,76.307 7.259,77.295C7.456,78.282 7.555,79.319 7.654,80.356C7.703,79.369 7.802,78.381 7.95,77.443C8.098,76.455 8.296,75.517 8.493,74.628L10.765,65.691L14.814,65.691L9.283,85.195L6.024,85.195Z" style="fill:rgb(254,254,254);"/>
            <rect x="17.085" y="65.691" width="4" height="19.504" style="fill:rgb(254,254,254);"/>
            <path d="M25.43,85.195L25.43,65.691L29.331,65.691L29.331,72.949L33.676,72.949L33.676,65.691L37.528,65.691L37.528,85.195L33.676,85.195L33.676,76.702L29.331,76.702L29.331,85.195L25.43,85.195Z" style="fill:rgb(254,254,254);"/>
            <path d="M45.28,78.727L47.848,78.727C47.552,77.394 47.354,75.962 47.107,74.48C46.91,72.999 46.712,71.419 46.564,69.74C46.367,71.221 46.169,72.703 45.922,74.184C45.725,75.665 45.478,77.196 45.28,78.727ZM40.046,85.195L44.589,65.691L48.687,65.691L52.983,85.195L49.132,85.195L48.44,81.788L44.54,81.788L43.947,85.195L40.046,85.195Z" style="fill:rgb(254,254,254);"/>
            <path d="M58.563,85.195L53.033,65.691L56.934,65.691L59.254,74.53C59.452,75.418 59.649,76.307 59.798,77.295C59.946,78.282 60.094,79.319 60.193,80.356C60.242,79.369 60.341,78.381 60.489,77.443C60.637,76.455 60.835,75.517 61.032,74.628L63.303,65.691L67.353,65.691L61.822,85.195L58.563,85.195Z" style="fill:rgb(254,254,254);"/>
            <path d="M0.06,100.331L0.227,100.331C0.563,100.331 0.786,100.331 0.898,100.27C1.01,100.148 1.01,100.026 1.01,99.842C1.01,99.598 0.954,99.476 0.842,99.415C0.73,99.293 0.507,99.293 0.227,99.293L0.06,99.293L0.06,100.331ZM0.06,100.881L0.06,102.652L-0.499,102.652L-0.499,98.743L0.954,98.743C1.066,98.804 1.178,98.865 1.289,98.926C1.401,98.987 1.457,99.11 1.569,99.293C1.625,99.415 1.625,99.598 1.625,99.781C1.625,99.965 1.625,100.148 1.569,100.331C1.457,100.453 1.401,100.575 1.289,100.698C1.178,100.759 1.066,100.82 0.954,100.82C0.842,100.881 0.619,100.881 0.395,100.881L0.283,100.881L0.06,100.881ZM3.078,102.652L3.078,98.743L3.693,98.743L3.693,102.652L3.078,102.652ZM5.426,102.652L5.426,98.743L5.985,98.743L5.985,102.102L7.326,102.102L7.326,102.652L5.426,102.652ZM8.668,102.652L8.668,98.743L9.283,98.743L9.283,102.102L10.569,102.102L10.569,102.652L8.668,102.652ZM12.693,101.125L13.699,101.125L13.364,100.209C13.308,100.148 13.308,100.087 13.252,100.026C13.252,99.965 13.252,99.842 13.196,99.781C13.196,99.842 13.14,99.904 13.14,100.026C13.14,100.087 13.084,100.148 13.084,100.209L12.693,101.125ZM14.314,102.652L13.923,101.614L12.469,101.614L12.078,102.652L11.463,102.652L13.196,98.56L14.929,102.652L14.314,102.652ZM16.773,100.392L16.885,100.392C17.165,100.392 17.388,100.331 17.5,100.27C17.612,100.209 17.612,100.087 17.612,99.842C17.612,99.659 17.612,99.476 17.5,99.415C17.388,99.293 17.165,99.293 16.885,99.293L16.773,99.293L16.773,100.392ZM16.717,100.881L16.717,102.652L16.159,102.652L16.159,98.743L17.556,98.743C17.668,98.804 17.78,98.865 17.891,98.926C18.003,99.048 18.059,99.171 18.171,99.293C18.227,99.476 18.227,99.598 18.227,99.781C18.227,100.087 18.171,100.331 18.003,100.514C17.891,100.698 17.668,100.82 17.388,100.881L18.674,102.652L18.003,102.652L16.773,100.881L16.717,100.881ZM24.487,100.698C24.487,100.514 24.487,100.331 24.376,100.148C24.32,99.965 24.264,99.781 24.096,99.659C23.984,99.537 23.873,99.415 23.705,99.354C23.537,99.232 23.369,99.232 23.202,99.232C23.034,99.232 22.866,99.232 22.699,99.354C22.531,99.415 22.363,99.476 22.251,99.659C22.14,99.781 22.028,99.965 21.972,100.148C21.916,100.27 21.86,100.514 21.86,100.698C21.86,100.881 21.916,101.064 21.972,101.247C22.028,101.43 22.14,101.614 22.251,101.736C22.363,101.858 22.531,101.98 22.699,102.041C22.866,102.102 23.034,102.163 23.202,102.163C23.369,102.163 23.537,102.102 23.705,102.041C23.873,101.98 23.984,101.858 24.096,101.736C24.264,101.614 24.32,101.43 24.376,101.247C24.487,101.064 24.487,100.881 24.487,100.698ZM25.102,100.698C25.102,100.942 25.046,101.247 24.991,101.492C24.879,101.736 24.711,101.98 24.543,102.163C24.376,102.347 24.152,102.469 23.928,102.591C23.705,102.713 23.425,102.774 23.202,102.774C22.922,102.774 22.699,102.713 22.419,102.591C22.196,102.469 22.028,102.347 21.804,102.163C21.637,101.98 21.525,101.736 21.413,101.492C21.301,101.247 21.245,101.003 21.245,100.698C21.245,100.392 21.301,100.148 21.413,99.904C21.525,99.659 21.637,99.415 21.804,99.232C22.028,99.048 22.196,98.865 22.475,98.804C22.699,98.682 22.922,98.621 23.202,98.621C23.425,98.621 23.705,98.682 23.928,98.804C24.152,98.865 24.376,99.048 24.543,99.232C24.711,99.415 24.879,99.659 24.991,99.904C25.046,100.148 25.102,100.392 25.102,100.698ZM26.667,102.652L26.667,98.743L28.68,98.743L28.68,99.232L27.282,99.232L27.282,100.209L28.68,100.209L28.68,100.82L27.282,100.82L27.282,102.652L26.667,102.652ZM31.754,102.652L31.754,98.743L33.767,98.743L33.767,99.232L32.313,99.232L32.313,100.27L33.767,100.27L33.767,100.82L32.313,100.82L32.313,102.102L33.767,102.102L33.767,102.652L31.754,102.652ZM34.941,102.652L36.058,100.575L35.052,98.743L35.667,98.743L36.17,99.659C36.226,99.72 36.282,99.842 36.338,99.965L36.394,100.087C36.394,100.026 36.45,99.965 36.45,99.904C36.506,99.842 36.506,99.781 36.562,99.659L37.121,98.743L37.735,98.743L36.673,100.575L37.791,102.652L37.176,102.652L36.562,101.553L36.562,101.492C36.45,101.369 36.394,101.247 36.338,101.125C36.338,101.186 36.282,101.247 36.282,101.308C36.226,101.369 36.226,101.43 36.17,101.553L35.555,102.652L34.941,102.652ZM41.928,99.659C41.76,99.537 41.592,99.415 41.369,99.354C41.201,99.232 40.978,99.232 40.81,99.232C40.419,99.232 40.083,99.354 39.86,99.598C39.58,99.904 39.468,100.27 39.468,100.698C39.468,101.125 39.58,101.492 39.86,101.736C40.083,102.041 40.363,102.163 40.754,102.163C40.978,102.163 41.145,102.102 41.369,102.041C41.537,101.98 41.704,101.858 41.928,101.675L41.928,102.408C41.76,102.53 41.592,102.591 41.369,102.652C41.201,102.713 40.978,102.774 40.81,102.774C40.53,102.774 40.251,102.713 40.027,102.591C39.804,102.53 39.58,102.347 39.412,102.163C39.245,101.98 39.077,101.736 39.021,101.492C38.909,101.247 38.853,101.003 38.853,100.698C38.853,100.392 38.909,100.148 39.021,99.904C39.077,99.598 39.245,99.415 39.412,99.232C39.58,98.987 39.804,98.865 40.027,98.743C40.251,98.682 40.53,98.621 40.754,98.621C40.978,98.621 41.201,98.682 41.369,98.743C41.592,98.804 41.76,98.865 41.928,99.048L41.928,99.659ZM43.549,102.652L43.549,98.743L45.561,98.743L45.561,99.232L44.108,99.232L44.108,100.27L45.561,100.27L45.561,100.82L44.108,100.82L44.108,102.102L45.561,102.102L45.561,102.652L43.549,102.652ZM47.126,102.652L47.126,98.743L47.685,98.743L47.685,102.102L49.027,102.102L49.027,102.652L47.126,102.652ZM50.369,102.652L50.369,98.743L50.983,98.743L50.983,102.102L52.269,102.102L52.269,102.652L50.369,102.652ZM53.667,102.652L53.667,98.743L55.679,98.743L55.679,99.232L54.226,99.232L54.226,100.27L55.679,100.27L55.679,100.82L54.226,100.82L54.226,102.102L55.679,102.102L55.679,102.652L53.667,102.652ZM57.244,102.652L57.244,98.56L59.536,100.942C59.592,101.003 59.648,101.125 59.704,101.186C59.76,101.247 59.816,101.369 59.927,101.43L59.927,98.743L60.43,98.743L60.43,102.774L58.139,100.331C58.083,100.27 57.971,100.209 57.915,100.148C57.859,100.087 57.803,99.965 57.747,99.904L57.747,102.652L57.244,102.652ZM65.07,99.659C64.902,99.537 64.735,99.415 64.567,99.354C64.343,99.232 64.176,99.232 63.952,99.232C63.561,99.232 63.225,99.354 63.002,99.598C62.778,99.904 62.61,100.27 62.61,100.698C62.61,101.125 62.778,101.492 63.002,101.736C63.225,102.041 63.561,102.163 63.896,102.163C64.12,102.163 64.287,102.102 64.511,102.041C64.679,101.98 64.902,101.858 65.07,101.675L65.07,102.408C64.902,102.53 64.735,102.591 64.567,102.652C64.343,102.713 64.176,102.774 63.952,102.774C63.673,102.774 63.393,102.713 63.169,102.591C62.946,102.53 62.722,102.347 62.555,102.163C62.387,101.98 62.275,101.736 62.163,101.492C62.051,101.247 61.996,101.003 61.996,100.698C61.996,100.392 62.051,100.148 62.163,99.904C62.275,99.598 62.387,99.415 62.555,99.232C62.778,98.987 62.946,98.865 63.169,98.743C63.393,98.682 63.673,98.621 63.952,98.621C64.176,98.621 64.343,98.682 64.567,98.743C64.735,98.804 64.902,98.865 65.126,99.048L65.07,99.659ZM66.691,102.652L66.691,98.743L68.703,98.743L68.703,99.232L67.25,99.232L67.25,100.27L68.703,100.27L68.703,100.82L67.25,100.82L67.25,102.102L68.703,102.102L68.703,102.652L66.691,102.652Z" style="fill:rgb(254,254,254);"/>
        </g>
    </g>
</svg>
